<?xml version="1.0" standalone="no"?>
<!DOCTYPE svg PUBLIC "-//W3C//DTD SVG 20010904//EN"
 "http://www.w3.org/TR/2001/REC-SVG-20010904/DTD/svg10.dtd">
<svg version="1.0" xmlns="http://www.w3.org/2000/svg"
 width="200.000000pt" height="200.000000pt" viewBox="0 0 200.000000 200.000000"
 preserveAspectRatio="xMidYMid meet">

<g transform="translate(0.000000,200.000000) scale(0.100000,-0.100000)"
fill="#000000" stroke="none">
<path d="M0 1000 l0 -1000 1000 0 1000 0 0 1000 0 1000 -1000 0 -1000 0 0
-1000z m955 230 c-27 -27 -45 -50 -39 -50 5 0 32 23 59 50 27 28 56 50 64 50
9 0 -5 -21 -34 -50 -29 -29 -43 -50 -34 -50 8 0 37 23 64 50 27 28 56 50 64
50 9 0 -5 -21 -34 -50 -27 -27 -45 -50 -39 -50 5 0 32 23 59 50 27 28 58 50
69 50 16 0 11 -10 -29 -50 -27 -27 -45 -50 -39 -50 5 0 32 22 58 49 l49 50 54
-47 c30 -26 49 -48 43 -50 -6 -2 -10 -36 -10 -83 0 -62 3 -79 14 -79 8 0 18
-4 21 -10 4 -7 -103 -10 -315 -10 -212 0 -319 3 -315 10 3 6 15 10 26 10 14 0
19 7 19 30 0 17 5 30 10 30 6 0 10 -13 10 -30 0 -28 3 -30 35 -30 32 0 35 2
35 30 0 17 5 30 10 30 6 0 10 -13 10 -30 0 -26 4 -30 26 -30 l26 0 -3 85 -3
85 44 45 c24 25 51 45 59 45 9 0 -5 -21 -34 -50z"/>
<path d="M1175 1200 c-4 -7 -3 -16 3 -22 14 -14 45 -2 40 15 -6 16 -34 21 -43
7z"/>
<path d="M922 1078 l2 -63 3 58 4 57 69 0 70 0 0 -55 c0 -30 5 -55 10 -55 6 0
10 27 10 60 l0 60 -85 0 -85 0 2 -62z"/>
<path d="M1150 1070 l0 -50 35 0 35 0 0 50 0 50 -35 0 -35 0 0 -50z"/>
</g>
</svg>
