<svg xmlns="http://www.w3.org/2000/svg" xmlns:xlink="http://www.w3.org/1999/xlink" width="500" zoomAndPan="magnify" viewBox="0 0 375 374.999991" height="500" preserveAspectRatio="xMidYMid meet" version="1.0"><defs><g/><clipPath id="4111ef6e9d"><path d="M 35.210938 61.582031 L 341.210938 61.582031 L 341.210938 315.832031 L 35.210938 315.832031 Z M 35.210938 61.582031 " clip-rule="nonzero"/></clipPath></defs><g clip-path="url(#4111ef6e9d)"><path fill="#ffffff" d="M 305.03125 273.960938 C 304.277344 265.191406 307.257812 240.613281 305.496094 234.171875 C 305.488281 234.144531 305.464844 234.125 305.457031 234.09375 C 305.519531 233.488281 305.074219 232.835938 304.328125 233.085938 C 304.289062 233.097656 304.253906 233.101562 304.21875 233.117188 C 299.601562 228.457031 295.484375 223.375 291.515625 218.167969 C 291.585938 212.695312 291.984375 207.210938 292.347656 201.730469 C 294.902344 193.644531 306.480469 188.769531 314.160156 191.246094 C 318.632812 192.691406 324.890625 195.566406 330.03125 194.765625 C 330.136719 194.800781 330.246094 194.824219 330.382812 194.804688 C 332.019531 194.574219 333.476562 193.804688 334.882812 192.960938 C 336.082031 192.238281 337.449219 191.375 338.019531 190.035156 C 338.289062 189.40625 337.746094 188.851562 337.109375 189.125 C 336.335938 189.457031 335.652344 189.988281 334.839844 190.21875 C 334.679688 190.261719 334.527344 190.300781 334.375 190.335938 C 334.238281 190.25 334.070312 190.21875 333.859375 190.28125 C 328.125 192.054688 321.410156 189.765625 316.105469 187.058594 C 325.886719 182.875 333.152344 173.644531 335.261719 163.242188 C 335.433594 162.40625 334.148438 162.050781 333.976562 162.886719 C 331.890625 173.179688 324.59375 182.429688 314.710938 186.21875 C 314.675781 186.230469 314.652344 186.261719 314.621094 186.28125 C 313.878906 185.90625 313.230469 187.027344 313.972656 187.4375 C 319.554688 190.507812 326.914062 193.363281 333.378906 191.785156 C 333.5625 191.902344 333.789062 191.945312 334.03125 191.820312 C 334.171875 191.75 334.320312 191.699219 334.472656 191.65625 C 334.277344 191.773438 334.082031 191.890625 333.890625 192 C 333.304688 192.34375 332.710938 192.660156 332.09375 192.921875 C 331.957031 192.890625 331.816406 192.890625 331.671875 192.960938 C 328.398438 194.390625 323.242188 192.835938 319.984375 191.878906 C 315.734375 190.628906 311.964844 188.527344 307.402344 189.265625 C 302.371094 190.085938 296.589844 192.996094 293.269531 197.328125 C 292.578125 198.457031 291.714844 199.515625 291.277344 200.78125 C 290.8125 202.113281 290.839844 203.570312 290.757812 204.957031 C 290.640625 206.953125 290.523438 208.941406 290.433594 210.933594 C 290.382812 211.929688 290.347656 212.921875 290.308594 213.917969 C 290.285156 214.652344 290.457031 215.789062 290.308594 216.578125 C 286.621094 211.691406 283.019531 206.730469 279.214844 201.945312 C 279.148438 201.863281 279.082031 201.777344 279.019531 201.699219 C 278.152344 193.394531 279.851562 184.878906 280.359375 176.582031 C 280.8125 169.164062 280.648438 161.140625 275.578125 155.226562 C 271.417969 150.457031 266.207031 147.304688 260.550781 144.578125 C 257.242188 142.988281 253.78125 142.289062 250.226562 141.378906 C 245.449219 140.148438 240.648438 138.980469 235.726562 138.585938 C 233.4375 138.402344 231.125 138.277344 228.851562 138.621094 C 226.550781 138.96875 224.320312 139.777344 222.332031 140.980469 C 221.316406 141.59375 220.410156 142.332031 219.402344 142.953125 C 218.253906 143.648438 217.121094 144.386719 215.996094 145.128906 C 214.257812 146.273438 212.464844 147.355469 210.753906 148.5 C 209.867188 149.089844 208.753906 149.488281 207.75 149.832031 C 207.25 150.003906 206.75 150.15625 206.234375 150.285156 C 205.84375 150.382812 205.140625 150.382812 204.804688 150.582031 C 207.640625 148.851562 210.441406 147.054688 213.195312 145.191406 C 215.816406 143.410156 218.742188 141.679688 221.082031 139.539062 C 221.605469 139.0625 221.40625 138.828125 220.71875 138.910156 C 220.140625 138.976562 219.574219 139.050781 219.003906 139.128906 C 217.859375 139.28125 216.722656 139.460938 215.589844 139.65625 C 213.351562 140.035156 211.128906 140.488281 208.914062 140.988281 C 195.824219 143.929688 182.4375 145.835938 169.097656 143.269531 C 168.261719 143.109375 167.90625 144.386719 168.742188 144.554688 C 181.019531 146.921875 193.550781 145.683594 205.660156 143.074219 C 209.683594 142.203125 213.660156 141.335938 217.675781 140.695312 C 215.535156 141.882812 213.511719 143.257812 211.550781 144.753906 C 207.757812 147.652344 203.910156 150.96875 198.890625 151.132812 C 198.03125 151.164062 198.03125 152.492188 198.890625 152.46875 C 199 152.460938 199.101562 152.441406 199.214844 152.4375 C 199.355469 152.609375 199.574219 152.699219 199.847656 152.601562 C 202.246094 151.734375 204.863281 152.027344 207.304688 151.214844 C 209.703125 150.414062 211.976562 149.226562 214.136719 147.917969 C 216.460938 146.5 218.808594 145.042969 221.054688 143.507812 C 223.230469 142.015625 225.566406 140.683594 228.128906 139.984375 C 230.625 139.304688 233.253906 139.246094 235.828125 139.515625 C 239.105469 139.851562 242.292969 140.730469 245.511719 141.300781 C 246.660156 141.5 247.804688 141.882812 248.941406 142.1875 C 251.289062 142.824219 253.644531 143.457031 255.980469 144.148438 C 258.5 144.894531 260.824219 146.191406 263.03125 147.605469 C 264.15625 148.328125 265.265625 149.089844 266.367188 149.855469 C 267.363281 150.546875 268.445312 151.023438 269.464844 151.695312 C 272.835938 153.921875 275.796875 156.847656 277.417969 160.59375 C 279.472656 165.347656 279.363281 170.96875 279.082031 176.042969 C 278.648438 183.925781 277.105469 191.96875 277.558594 199.875 C 273.960938 195.425781 270.261719 191.039062 266.683594 186.574219 C 266.664062 186.207031 266.445312 185.867188 266.035156 185.765625 C 261.425781 179.980469 257.039062 174.023438 253.394531 167.542969 C 253.179688 167.164062 252.835938 167.046875 252.507812 167.097656 C 252.367188 166.839844 252.117188 166.644531 251.730469 166.648438 C 242.824219 166.773438 233.976562 165.097656 225.023438 165.140625 C 215.835938 165.183594 206.664062 165.648438 197.476562 165.382812 C 183.292969 164.980469 169.125 164.484375 154.941406 164.246094 C 154.8125 164.171875 154.660156 164.117188 154.464844 164.136719 C 154.296875 164.15625 154.15625 164.191406 154.027344 164.234375 C 149.746094 164.167969 145.460938 164.117188 141.179688 164.113281 C 140.867188 163.675781 140.257812 163.464844 139.785156 163.964844 C 139.15625 164.636719 138.519531 165.308594 137.882812 165.984375 C 131.511719 172.679688 124.867188 179.109375 118.148438 185.449219 C 114.789062 188.625 111.40625 191.773438 108.03125 194.929688 C 97.5 204.769531 86.894531 214.738281 77.171875 225.3125 C 76.609375 225.921875 76.992188 241.453125 77.5625 248.753906 C 78.242188 257.417969 78.144531 266.066406 78.246094 274.75 C 78.449219 291.757812 79.035156 295.746094 79 312.753906 C 77.898438 312.871094 77.921875 314.632812 79.109375 314.632812 C 110.90625 314.652344 142.683594 315.53125 174.480469 315.820312 C 189.078125 315.949219 203.679688 315.617188 218.257812 315.230469 C 233.050781 314.839844 247.847656 314.375 262.648438 314.246094 C 264.347656 314.234375 266.054688 314.222656 267.753906 314.214844 C 276.078125 314.191406 284.476562 313.898438 292.792969 314.265625 C 295.011719 314.363281 297.226562 314.621094 299.441406 314.808594 C 300.894531 314.933594 303.722656 315.542969 305.0625 314.707031 C 305.851562 314.210938 306.007812 313.144531 306.0625 312.132812 C 306.089844 311.609375 306.09375 311.109375 306.136719 310.695312 C 306.351562 308.78125 306.449219 306.851562 306.492188 304.925781 C 306.578125 301.148438 306.425781 301.699219 306.386719 297.917969 C 306.289062 289.183594 305.777344 282.648438 305.03125 273.960938 Z M 302.132812 233.691406 C 296.046875 235.097656 289.183594 234.339844 283.074219 234.3125 C 274.617188 234.285156 266.15625 234.179688 257.695312 234.058594 C 240.464844 233.8125 223.238281 233.488281 206.003906 233.476562 C 205.648438 233.476562 205.410156 233.640625 205.257812 233.867188 C 201.230469 232.34375 197.972656 227.835938 195.140625 223.863281 C 214.972656 223.855469 234.808594 223.710938 254.636719 223.625 C 263.621094 223.585938 272.605469 223.519531 281.582031 223.585938 C 284.425781 223.605469 290.273438 224.664062 292.914062 223.054688 C 295.839844 226.738281 298.859375 230.320312 302.132812 233.691406 Z M 282.261719 209.011719 C 285.433594 213.222656 288.546875 217.476562 291.789062 221.628906 C 290.207031 222.230469 287.203125 221.820312 285.828125 221.824219 C 283.476562 221.839844 281.128906 221.796875 278.78125 221.789062 C 269.546875 221.777344 260.304688 221.8125 251.070312 221.851562 C 232.304688 221.9375 213.542969 222.070312 194.78125 222.070312 C 194.46875 222.070312 194.246094 222.207031 194.105469 222.402344 C 193.550781 221.625 193.003906 220.890625 192.480469 220.222656 C 190.441406 217.667969 188.460938 215.082031 186.460938 212.503906 C 194.722656 212.632812 202.894531 211.472656 211.132812 211.136719 C 219.015625 210.8125 226.925781 210.660156 234.8125 210.546875 C 250.441406 210.328125 266.445312 210.695312 282 209.09375 C 282.097656 209.085938 282.175781 209.050781 282.261719 209.011719 Z M 273.417969 197.828125 C 274.554688 199.214844 275.699219 200.597656 276.824219 201.992188 C 278.253906 203.765625 279.644531 205.570312 281.03125 207.386719 C 265.777344 208.878906 250.117188 208.546875 234.808594 208.761719 C 226.917969 208.871094 219.011719 209.011719 211.128906 209.351562 C 202.632812 209.710938 194.203125 210.933594 185.683594 210.71875 C 185.476562 210.714844 185.316406 210.78125 185.183594 210.878906 C 182.417969 207.335938 179.601562 203.847656 176.546875 200.535156 C 176.113281 200.074219 175.660156 199.625 175.226562 199.160156 L 258.195312 199.160156 C 262.433594 199.160156 269.632812 200.453125 273.355469 197.902344 C 273.378906 197.875 273.394531 197.847656 273.417969 197.828125 Z M 272.28125 196.433594 C 269.980469 197.863281 266.085938 197.363281 263.503906 197.367188 C 259.949219 197.375 256.390625 197.363281 252.832031 197.363281 L 174.320312 197.363281 C 174.066406 197.363281 173.875 197.460938 173.734375 197.601562 C 170.640625 194.371094 167.484375 191.203125 164.296875 188.066406 C 181.214844 188.011719 198.113281 187.308594 215.023438 186.964844 C 231.707031 186.628906 248.335938 187.46875 265.007812 187.503906 C 267.398438 190.5 269.839844 193.46875 272.28125 196.433594 Z M 263.570312 185.699219 C 247.375 185.625 231.222656 184.84375 215.011719 185.175781 C 197.75 185.523438 180.503906 186.257812 163.238281 186.28125 C 163.007812 186.28125 162.835938 186.367188 162.695312 186.484375 C 161.367188 185.175781 160.046875 183.867188 158.730469 182.550781 C 157.097656 180.917969 155.519531 179.242188 153.949219 177.554688 C 172.328125 177.558594 190.699219 176.085938 209.101562 176.460938 C 218.191406 176.644531 227.210938 177.976562 236.304688 177.75 C 240.355469 177.652344 244.375 177.53125 248.421875 177.714844 C 251.339844 177.847656 254.304688 177.976562 257.09375 177.003906 C 259.136719 179.980469 261.332031 182.855469 263.570312 185.699219 Z M 153.949219 166.140625 C 154.023438 166.148438 154.097656 166.15625 154.167969 166.140625 C 168.597656 166.367188 183.019531 166.859375 197.445312 167.265625 C 206.632812 167.53125 215.804688 167.066406 224.992188 167.023438 C 233.9375 166.980469 242.796875 168.660156 251.699219 168.535156 C 251.71875 168.535156 251.730469 168.527344 251.75 168.519531 C 253.089844 170.898438 254.542969 173.1875 256.054688 175.445312 C 253.003906 176.335938 249.753906 175.957031 246.613281 175.828125 C 242.636719 175.675781 238.660156 175.933594 234.6875 175.996094 C 225.5625 176.136719 216.480469 174.742188 207.347656 174.636719 C 189.128906 174.433594 170.933594 175.839844 152.738281 175.761719 C 152.597656 175.761719 152.480469 175.785156 152.371094 175.835938 C 149.324219 172.53125 146.3125 169.199219 143.148438 166.015625 C 146.746094 166.03125 150.347656 166.085938 153.949219 166.140625 Z M 199.789062 313.941406 C 194.890625 313.996094 189.992188 314.003906 185.089844 313.996094 C 185.410156 312.191406 185.105469 310.546875 184.839844 308.683594 C 184.277344 304.675781 184.667969 304.851562 184.585938 300.804688 C 184.425781 292.816406 183.878906 287.007812 183.839844 279.015625 C 183.832031 278.382812 183.332031 278.085938 182.847656 278.101562 C 182.785156 278.089844 182.730469 278.066406 182.65625 278.066406 C 176.351562 278.046875 170.054688 277.851562 163.746094 277.835938 C 163.40625 277.835938 163.171875 277.988281 163.019531 278.195312 C 162.457031 277.945312 161.644531 278.214844 161.644531 279.015625 C 161.613281 286.230469 161.519531 291.265625 162.070312 298.460938 C 162.578125 305.0625 161.992188 307.25 161.886719 313.851562 C 134.886719 313.511719 107.878906 312.773438 80.875 312.722656 C 80.914062 296.335938 80.371094 292.976562 80.148438 276.59375 C 80.039062 268.398438 80.269531 260.171875 79.691406 251.988281 C 79.089844 243.550781 78.722656 227.691406 79.304688 225.78125 C 98.699219 204.855469 120.886719 186.757812 140.441406 165.984375 C 146.734375 172.136719 152.382812 178.910156 158.621094 185.125 C 165.007812 191.480469 171.574219 197.679688 177.53125 204.453125 C 183.132812 210.8125 188.144531 217.714844 193.367188 224.382812 C 196.265625 228.089844 199.367188 233.078125 203.789062 235.25 C 203.789062 235.261719 203.78125 235.269531 203.78125 235.273438 C 203.714844 251.304688 202.566406 260.8125 202.496094 276.847656 C 202.46875 284.824219 202.707031 290.648438 203.511719 298.585938 C 204.179688 305.132812 205.074219 307.269531 205.355469 313.835938 C 203.5 313.867188 201.648438 313.921875 199.789062 313.941406 Z M 303.839844 313.246094 C 298.402344 313.378906 292.640625 312.289062 287.460938 312.289062 C 277.820312 312.289062 268.175781 312.230469 258.539062 312.382812 C 241.4375 312.65625 224.351562 313.441406 207.253906 313.789062 C 206.972656 307.238281 206.085938 305.109375 205.414062 298.574219 C 204.601562 290.632812 204.363281 284.8125 204.398438 276.835938 C 204.472656 260.929688 205.597656 251.546875 205.679688 235.648438 C 205.777344 235.566406 205.867188 235.46875 205.929688 235.355469 C 205.960938 235.355469 205.976562 235.371094 206.007812 235.371094 C 223.867188 235.382812 241.726562 235.726562 259.578125 235.976562 C 268.347656 236.101562 277.125 236.199219 285.894531 236.214844 C 291.730469 236.230469 297.992188 236.820312 303.699219 235.230469 C 303.726562 235.25 303.757812 235.242188 303.789062 235.261719 C 304.625 239.035156 302.429688 265.808594 303.132812 273.957031 C 303.824219 282.035156 304.332031 287.972656 304.457031 296.082031 C 304.546875 303.140625 305.097656 306.261719 303.839844 313.246094 Z M 242.867188 261.894531 C 242.964844 259.125 243.210938 256.042969 242.359375 253.363281 C 242.277344 253.101562 242.109375 252.929688 241.914062 252.839844 C 241.726562 252.660156 241.46875 252.550781 241.148438 252.613281 C 238.445312 253.113281 235.320312 252.742188 232.5625 252.730469 C 230.054688 252.714844 226.925781 253.1875 224.515625 252.539062 C 224.464844 252.527344 224.421875 252.53125 224.375 252.53125 C 223.886719 252.433594 223.316406 252.691406 223.316406 253.339844 L 223.316406 271.429688 C 223.316406 272.0625 223.867188 272.324219 224.351562 272.246094 C 224.472656 272.324219 224.613281 272.378906 224.800781 272.371094 C 227.984375 272.324219 231.144531 271.957031 234.324219 271.878906 C 236.679688 271.816406 239.179688 272.25 241.511719 271.9375 C 241.976562 272.28125 242.699219 272.226562 242.808594 271.515625 C 243.261719 268.464844 242.765625 265.027344 242.867188 261.894531 Z M 241.1875 270.257812 C 238.636719 270.628906 235.71875 270.066406 233.132812 270.183594 C 230.433594 270.304688 227.75 270.570312 225.046875 270.625 L 225.046875 254.421875 C 227.4375 254.800781 230.238281 254.453125 232.5625 254.464844 C 235.261719 254.476562 238.140625 254.734375 240.832031 254.378906 C 241.5 256.984375 241.210938 259.957031 241.105469 262.582031 C 241.003906 265.015625 241.394531 267.796875 241.1875 270.257812 Z M 288.273438 261.894531 C 288.371094 259.125 288.617188 256.042969 287.765625 253.363281 C 287.679688 253.101562 287.515625 252.929688 287.320312 252.839844 C 287.128906 252.660156 286.871094 252.550781 286.554688 252.613281 C 283.851562 253.113281 280.726562 252.742188 277.96875 252.730469 C 275.460938 252.714844 272.328125 253.1875 269.917969 252.539062 C 269.871094 252.527344 269.828125 252.53125 269.777344 252.53125 C 269.289062 252.433594 268.71875 252.691406 268.71875 253.339844 L 268.71875 271.429688 C 268.71875 272.0625 269.269531 272.324219 269.753906 272.246094 C 269.875 272.324219 270.015625 272.378906 270.207031 272.371094 C 273.386719 272.324219 276.550781 271.957031 279.730469 271.878906 C 282.082031 271.816406 284.585938 272.25 286.914062 271.9375 C 287.378906 272.28125 288.101562 272.226562 288.210938 271.515625 C 288.664062 268.464844 288.164062 265.027344 288.273438 261.894531 Z M 286.585938 270.257812 C 284.035156 270.628906 281.117188 270.066406 278.53125 270.183594 C 275.832031 270.304688 273.148438 270.570312 270.445312 270.625 L 270.445312 254.421875 C 272.835938 254.800781 275.636719 254.453125 277.960938 254.464844 C 280.660156 254.476562 283.539062 254.734375 286.230469 254.378906 C 286.898438 256.984375 286.609375 259.957031 286.503906 262.582031 C 286.40625 265.015625 286.800781 267.796875 286.585938 270.257812 Z M 120.445312 260.277344 C 120.421875 260.277344 120.398438 260.269531 120.367188 260.277344 C 120.191406 260.300781 119.683594 260.320312 118.972656 260.324219 C 118.726562 249.957031 117.109375 239.574219 117.1875 229.183594 C 117.1875 228.828125 116.996094 228.609375 116.753906 228.5 C 116.5625 228.132812 116.140625 227.894531 115.683594 228.1875 C 115.179688 228.503906 114.085938 228.261719 113.511719 228.273438 C 111.867188 228.308594 110.222656 228.371094 108.570312 228.386719 C 104.96875 228.429688 101.363281 228.65625 97.761719 228.6875 C 97.183594 228.695312 96.929688 229.195312 97 229.640625 C 96.972656 229.722656 96.945312 229.808594 96.945312 229.90625 C 96.914062 236.710938 97.648438 243.46875 98.03125 250.253906 C 98.210938 253.390625 98.222656 256.507812 98.277344 259.644531 C 98.28125 260.03125 98.277344 260.441406 98.269531 260.855469 C 97.347656 260.894531 96.464844 260.917969 95.664062 260.929688 C 95.382812 260.9375 95.207031 261.078125 95.101562 261.265625 C 94.945312 261.375 94.828125 261.542969 94.808594 261.785156 C 94.667969 263.785156 94.710938 265.785156 94.699219 267.785156 C 94.398438 268.183594 94.570312 268.910156 95.21875 268.910156 C 102.960938 268.910156 112.875 269.566406 120.582031 268.90625 C 120.972656 268.875 121.242188 268.617188 121.273438 268.214844 C 121.320312 267.585938 121.296875 263.046875 121.492188 261.007812 C 121.546875 260.503906 120.601562 260.164062 120.445312 260.277344 Z M 116.851562 255.945312 C 116.925781 257.414062 117.039062 258.875 117.167969 260.332031 C 114.6875 260.332031 111.335938 260.320312 109.15625 260.367188 C 109.082031 260.367188 109.003906 260.375 108.929688 260.375 C 108.757812 255.941406 108.363281 251.488281 108.128906 247.085938 C 107.984375 244.300781 108.019531 241.421875 107.988281 238.546875 C 108.136719 238.539062 108.28125 238.535156 108.429688 238.527344 C 110.863281 238.484375 113.414062 238.832031 115.828125 238.527344 C 116.109375 244.339844 116.570312 250.136719 116.851562 255.945312 Z M 110.6875 229.972656 C 111.839844 229.949219 114.097656 230.230469 115.597656 229.886719 C 115.589844 232.242188 115.65625 234.59375 115.757812 236.949219 C 113.296875 237.328125 110.515625 236.96875 107.96875 236.960938 C 107.921875 234.625 107.800781 232.300781 107.460938 230.050781 C 108.53125 230.027344 109.609375 229.996094 110.6875 229.972656 Z M 105.855469 230.101562 C 106.214844 232.332031 106.363281 234.652344 106.421875 237 C 103.878906 237.109375 101.339844 237.300781 98.796875 237.324219 C 98.660156 234.980469 98.558594 232.632812 98.5625 230.277344 C 100.992188 230.234375 103.421875 230.167969 105.855469 230.101562 Z M 99.519531 248.105469 C 99.328125 245.042969 99.078125 241.984375 98.882812 238.917969 C 101.40625 238.894531 103.929688 238.707031 106.449219 238.59375 C 106.492188 241.972656 106.421875 245.371094 106.601562 248.625 C 106.8125 252.527344 107.167969 256.488281 107.328125 260.429688 C 104.972656 260.519531 102.234375 260.679688 99.703125 260.796875 C 99.738281 259.328125 99.890625 257.835938 99.878906 256.660156 C 99.855469 253.800781 99.695312 250.957031 99.519531 248.105469 Z M 120.042969 267.554688 C 116.433594 268.042969 112.789062 267.535156 109.164062 267.527344 C 105.4375 267.523438 99.804688 267.527344 96.082031 267.527344 C 96.09375 265.78125 96.074219 264.03125 96.171875 262.289062 C 100.257812 262.207031 106.226562 261.828125 110.304688 261.71875 C 113.445312 261.632812 119.445312 261.554688 119.964844 261.699219 C 120.0625 261.882812 120.042969 263.199219 120.0625 263.945312 C 120.066406 264.203125 120.128906 267.542969 120.042969 267.554688 Z M 317.910156 129.300781 C 318.621094 128.8125 319.28125 129.96875 318.582031 130.449219 C 306.300781 138.957031 297.683594 150.992188 295.183594 165.878906 C 294.046875 172.65625 293.496094 179.523438 293.128906 186.390625 C 296.199219 185.78125 299.324219 185.609375 302.386719 184.867188 C 306.910156 183.773438 311.46875 182.5625 315.652344 180.488281 C 323.347656 176.679688 331.339844 168.160156 333.382812 159.691406 C 333.585938 158.859375 334.871094 159.214844 334.667969 160.042969 C 332.691406 168.226562 325.378906 176.410156 318.230469 180.613281 C 314.101562 183.039062 309.464844 184.441406 304.851562 185.625 C 302.769531 186.164062 300.640625 186.496094 298.515625 186.820312 C 297.421875 186.984375 296.332031 187.144531 295.246094 187.332031 C 294.535156 187.457031 293.628906 187.933594 292.957031 187.945312 C 291.125 187.96875 291.882812 184.703125 291.941406 183.601562 C 292.070312 181.382812 292.222656 179.15625 292.417969 176.941406 C 292.8125 172.449219 293.375 167.964844 294.265625 163.535156 C 297.160156 149.152344 305.992188 137.558594 317.910156 129.300781 Z M 81.414062 105.933594 C 84.09375 105.359375 87.339844 106.648438 89.875 107.363281 C 93.714844 108.453125 97.492188 109.804688 101.378906 110.734375 C 113.113281 113.558594 126.148438 113.601562 137.988281 111.394531 C 139.199219 111.167969 140.402344 110.917969 141.609375 110.640625 C 142.117188 110.527344 143.046875 110.078125 143.546875 110.355469 C 144.476562 110.863281 143.59375 111.773438 143.09375 112.261719 C 140.960938 114.335938 139.113281 116.621094 137.082031 118.792969 C 134.554688 121.496094 131.527344 123.59375 128.550781 125.761719 C 125.785156 127.773438 122.992188 129.851562 120.03125 131.570312 C 123.316406 130.296875 126.617188 129.152344 129.664062 127.289062 C 133.640625 124.855469 137.3125 121.925781 140.910156 118.964844 C 144.078125 116.359375 147.128906 113.632812 150.464844 111.234375 C 151.480469 110.5 152.492188 109.679688 153.535156 108.910156 C 158.589844 105.167969 165.699219 104.183594 171.851562 103.40625 C 178.578125 102.558594 185.484375 102.8125 191.894531 105.179688 C 192.417969 105.375 192.945312 105.585938 193.464844 105.804688 C 202.835938 109.796875 208.578125 118.1875 215.648438 125.074219 C 217.394531 126.78125 219.304688 128.316406 221.316406 129.699219 C 223.195312 130.988281 225.199219 132.058594 227.027344 133.40625 C 227.261719 133.574219 227.503906 133.800781 227.5 134.089844 C 227.5 134.417969 227.175781 134.660156 226.855469 134.742188 C 224.703125 135.347656 222.070312 134.714844 219.847656 134.675781 C 217.421875 134.632812 214.984375 134.804688 212.636719 135.433594 C 207.59375 136.796875 202.863281 139.109375 197.855469 140.601562 C 187.921875 143.5625 177.390625 143.746094 167.167969 142.535156 C 166.320312 142.4375 166.316406 141.105469 167.167969 141.203125 C 178.070312 142.492188 189.289062 142.1875 199.75 138.589844 C 204.859375 136.835938 209.804688 134.445312 215.15625 133.496094 C 218.5625 132.890625 221.957031 133.320312 225.359375 133.558594 C 220.011719 130.554688 215.304688 126.84375 210.90625 122.078125 C 203.777344 114.347656 196.796875 106.851562 185.9375 104.953125 C 179.160156 103.773438 172.242188 104.375 165.53125 105.699219 C 162.476562 106.304688 159.625 107.113281 156.847656 108.539062 C 154.285156 109.859375 152.023438 111.675781 149.730469 113.398438 C 146.078125 116.144531 142.707031 119.257812 139.125 122.097656 C 135.988281 124.578125 132.792969 127.027344 129.328125 129.039062 C 123.4375 132.449219 116.941406 134.207031 110.292969 135.207031 C 110.207031 135.226562 110.109375 135.246094 109.96875 135.265625 C 109.910156 135.269531 109.855469 135.28125 109.792969 135.289062 C 109.046875 135.378906 108.882812 134.089844 109.617188 133.980469 C 109.824219 133.90625 110.03125 133.828125 110.238281 133.753906 C 110.496094 133.589844 110.742188 133.628906 110.925781 133.769531 C 118.078125 132.445312 124.042969 127.417969 129.773438 123.238281 C 132.90625 120.953125 135.597656 118.519531 138.117188 115.589844 C 139.246094 114.273438 140.378906 112.953125 141.632812 111.765625 C 137.371094 112.769531 133.105469 113.570312 128.824219 113.890625 C 119.46875 114.585938 109.632812 114.183594 100.496094 111.882812 C 97.195312 111.050781 93.964844 109.9375 90.699219 108.984375 C 88.183594 108.25 84.4375 106.636719 81.765625 107.210938 C 80.933594 107.398438 80.578125 106.117188 81.414062 105.933594 Z M 83.875 103.625 C 95.28125 103.699219 106.570312 105.652344 117.976562 105.6875 C 128.921875 105.71875 138.855469 102.84375 149.128906 99.414062 C 158.167969 96.390625 167.546875 93.402344 177.207031 94.128906 C 186.382812 94.820312 195.023438 98.542969 203.242188 102.53125 C 195.230469 90.644531 191.933594 76.332031 187.402344 62.902344 C 187.128906 62.089844 188.414062 61.738281 188.6875 62.546875 C 193.453125 76.664062 196.820312 91.742188 205.84375 103.925781 C 206.277344 104.515625 205.464844 105.101562 204.933594 104.835938 C 195.238281 100.054688 184.890625 95.273438 173.851562 95.351562 C 163.925781 95.417969 154.46875 99.082031 145.167969 102.140625 C 135.796875 105.222656 126.625 107.160156 116.714844 107.015625 C 105.738281 106.851562 94.863281 105.039062 83.878906 104.964844 C 83.015625 104.953125 83.015625 103.621094 83.875 103.625 Z M 190.203125 62.597656 C 189.851562 61.820312 191 61.148438 191.355469 61.921875 C 201.140625 83.226562 211.371094 106.574219 231.675781 119.777344 C 228.3125 115.773438 227.328125 109.375 226.730469 104.597656 C 225.535156 95.167969 228.109375 84.65625 223.179688 76.050781 C 223.070312 75.855469 223.070312 75.664062 223.132812 75.507812 C 223.078125 75.359375 223.027344 75.214844 222.960938 75.066406 C 222.742188 74.59375 222.394531 74.234375 222.246094 73.722656 C 222.09375 73.171875 222.722656 72.664062 223.222656 72.96875 C 224.90625 73.988281 226.28125 75.242188 227.46875 76.816406 C 227.546875 76.917969 227.578125 77.023438 227.585938 77.121094 C 231.542969 83.5625 230.886719 91.878906 231.132812 99.121094 C 231.371094 106.203125 233.566406 113.113281 237.902344 118.757812 C 239.414062 120.726562 241.148438 122.511719 243.039062 124.121094 C 244.011719 124.945312 245.058594 125.65625 246.066406 126.421875 C 248.613281 128.339844 251.328125 129.449219 254.285156 130.605469 C 257.535156 131.871094 260.800781 133.097656 264.042969 134.371094 C 269.523438 136.523438 274.953125 138.75 279.851562 142.070312 C 281.90625 143.464844 284.121094 144.894531 285.808594 146.738281 C 287.234375 148.289062 287.914062 150.441406 289.265625 152.019531 C 292.136719 145.488281 297.140625 141.332031 302.515625 136.757812 C 306.667969 133.222656 311.410156 127.789062 317.328125 127.839844 C 318.1875 127.84375 318.1875 129.179688 317.328125 129.171875 C 311.59375 129.125 306.933594 134.8125 302.878906 138.191406 C 297.601562 142.597656 292.683594 146.753906 290.101562 153.355469 C 290.066406 153.445312 290.015625 153.519531 289.949219 153.585938 C 289.9375 153.597656 289.929688 153.605469 289.917969 153.609375 C 289.714844 153.792969 289.417969 153.867188 289.136719 153.726562 C 289.011719 153.679688 288.902344 153.605469 288.84375 153.5 C 287.332031 152.09375 286.683594 149.996094 285.417969 148.382812 C 283.632812 146.105469 281.070312 144.484375 278.683594 142.890625 C 273.894531 139.679688 268.53125 137.550781 263.1875 135.464844 C 261.160156 134.675781 259.136719 133.894531 257.113281 133.109375 C 255.1875 132.363281 253.019531 131.757812 251.234375 130.730469 C 247.867188 128.792969 244.5 127.007812 241.457031 124.523438 C 235.511719 119.675781 231.417969 112.257812 230.28125 104.691406 C 228.941406 95.757812 231.40625 85.164062 226.082031 77.214844 C 226.074219 77.207031 226.082031 77.199219 226.074219 77.199219 C 225.621094 76.636719 225.144531 76.117188 224.617188 75.648438 C 224.613281 75.714844 224.59375 75.78125 224.570312 75.847656 C 228.667969 83.445312 227.1875 92.097656 227.664062 100.390625 C 227.714844 101.210938 227.761719 102.035156 227.828125 102.855469 C 228.105469 106.359375 228.5625 109.902344 229.671875 113.246094 C 230.148438 114.683594 230.722656 116.367188 231.675781 117.570312 C 232.613281 118.746094 233.207031 120.023438 233.871094 121.398438 C 233.921875 121.503906 233.976562 121.621094 233.957031 121.734375 C 233.957031 121.746094 233.953125 121.761719 233.953125 121.773438 C 233.726562 122.738281 230.871094 120.804688 230.546875 120.597656 C 229.199219 119.734375 227.878906 118.824219 226.59375 117.871094 C 224.027344 115.960938 221.589844 113.871094 219.359375 111.582031 C 205.996094 97.910156 198.070312 79.71875 190.203125 62.597656 Z M 76.425781 115.1875 C 82.644531 110.695312 90.621094 112.398438 97.273438 114.953125 C 97.492188 115.039062 97.617188 115.199219 97.675781 115.382812 C 98.167969 115.535156 98.421875 116.273438 97.84375 116.582031 C 90.675781 120.402344 83.917969 117.859375 76.578125 116.402344 C 75.972656 116.28125 76.007812 115.492188 76.425781 115.1875 Z M 53.796875 224.988281 C 53.453125 225.515625 52.730469 225.191406 52.601562 224.6875 C 50.71875 217.25 55.238281 210.464844 60.066406 205.222656 C 60.222656 205.050781 60.417969 204.988281 60.613281 205 C 60.9375 204.605469 61.722656 204.640625 61.796875 205.289062 C 62.710938 213.363281 57.855469 218.707031 53.796875 224.988281 Z M 97.339844 197.890625 C 97.015625 190.582031 100.410156 184.605469 105.984375 180.066406 C 106.289062 179.816406 106.605469 179.921875 106.800781 180.152344 C 107.21875 180.054688 107.742188 180.347656 107.644531 180.90625 C 106.898438 185.210938 106.980469 188.617188 104.605469 192.441406 C 103.027344 194.984375 101.027344 197.289062 98.226562 198.46875 C 97.835938 198.628906 97.359375 198.304688 97.339844 197.890625 Z M 88.050781 128.695312 C 87.964844 131.644531 84.707031 134.4375 82.570312 136.113281 C 79.042969 138.882812 74.492188 141.359375 69.917969 141.453125 C 69.597656 141.457031 69.238281 141.152344 69.273438 140.8125 C 69.683594 136.910156 73.0625 133.769531 76.046875 131.570312 C 79.066406 129.34375 83.5 126.816406 87.382812 128.078125 C 87.390625 128.078125 87.390625 128.082031 87.394531 128.082031 C 87.726562 128.066406 88.0625 128.265625 88.050781 128.695312 Z M 54.121094 196.355469 C 54.035156 199.300781 50.769531 202.101562 48.632812 203.777344 C 45.097656 206.554688 40.542969 209.039062 35.960938 209.125 C 35.644531 209.128906 35.28125 208.824219 35.320312 208.480469 C 35.730469 204.574219 39.113281 201.429688 42.101562 199.226562 C 45.128906 196.996094 49.570312 194.46875 53.453125 195.734375 C 53.460938 195.734375 53.460938 195.742188 53.464844 195.742188 C 53.789062 195.722656 54.132812 195.917969 54.121094 196.355469 Z M 111.261719 167.46875 C 112.265625 162.828125 115.382812 158.777344 118.347656 155.195312 C 118.359375 155.183594 118.375 155.175781 118.386719 155.164062 C 118.460938 154.753906 118.898438 154.398438 119.363281 154.675781 C 121.230469 155.78125 120.640625 161.445312 120.355469 163.207031 C 119.824219 166.515625 116.855469 172.519531 112.996094 173.132812 C 110.3125 173.554688 110.886719 169.195312 111.261719 167.46875 Z M 65.316406 157.671875 C 64.988281 157.636719 64.65625 157.285156 64.730469 156.933594 C 66.425781 149.203125 73.867188 145.917969 81.023438 144.726562 C 81.347656 144.667969 81.574219 144.828125 81.683594 145.054688 C 82.117188 145.011719 82.613281 145.398438 82.417969 145.941406 C 79.933594 152.753906 72.824219 158.566406 65.316406 157.671875 Z M 51.8125 145.191406 C 53.042969 140.515625 62.347656 142.859375 65.324219 144.15625 C 65.484375 144.222656 65.570312 144.332031 65.617188 144.449219 C 65.875 144.730469 65.941406 145.230469 65.53125 145.515625 C 61.300781 148.414062 56.632812 148.039062 52.125 145.941406 C 51.851562 145.820312 51.742188 145.453125 51.8125 145.191406 Z M 69.570312 191.589844 C 67.214844 188.257812 67.164062 183.726562 67.171875 179.796875 C 67.183594 174.703125 68.371094 170.519531 70.804688 166.050781 C 70.96875 165.746094 71.257812 165.683594 71.511719 165.757812 C 71.84375 165.761719 72.199219 165.972656 72.253906 166.386719 C 73.3125 174.730469 75.292969 183.925781 70.71875 191.589844 C 70.441406 192.046875 69.851562 191.992188 69.570312 191.589844 Z M 78.558594 176.335938 C 78.277344 172.558594 79.609375 168.914062 81.945312 165.972656 C 83.117188 164.503906 84.496094 163.21875 86.003906 162.105469 C 87.207031 161.21875 89.324219 159.457031 90.851562 159.507812 C 90.863281 160.480469 91.011719 161.410156 90.753906 162.351562 C 90.503906 163.261719 90.199219 164.160156 89.855469 165.042969 C 89.21875 166.699219 88.441406 168.300781 87.476562 169.792969 C 86.515625 171.265625 85.378906 172.625 84.074219 173.804688 C 83.414062 174.40625 82.710938 174.960938 81.976562 175.46875 C 81.714844 175.644531 79.554688 176.757812 79.554688 176.925781 C 79.089844 177.15625 78.59375 176.851562 78.558594 176.335938 Z M 68.285156 214.328125 C 68.515625 207.011719 72.351562 201.3125 78.246094 197.210938 C 78.570312 196.984375 78.878906 197.113281 79.058594 197.355469 C 79.484375 197.296875 79.984375 197.625 79.847656 198.171875 C 78.785156 202.410156 78.601562 205.816406 75.949219 209.441406 C 74.179688 211.855469 72.015625 214.011719 69.132812 214.96875 C 68.726562 215.105469 68.273438 214.742188 68.285156 214.328125 Z M 293.960938 139.074219 C 291.605469 135.742188 291.558594 131.207031 291.5625 127.28125 C 291.574219 122.1875 292.761719 118.003906 295.195312 113.535156 C 295.363281 113.230469 295.648438 113.167969 295.90625 113.242188 C 296.234375 113.246094 296.589844 113.453125 296.644531 113.871094 C 297.703125 122.210938 299.683594 131.40625 295.109375 139.074219 C 294.839844 139.53125 294.25 139.476562 293.960938 139.074219 Z M 217.367188 158.871094 C 218.421875 155.230469 220.949219 152.285156 224.171875 150.34375 C 225.78125 149.378906 227.523438 148.65625 229.328125 148.148438 C 230.765625 147.738281 233.363281 146.828125 234.785156 147.410156 C 234.453125 148.328125 234.261719 149.246094 233.695312 150.035156 C 233.144531 150.796875 232.539062 151.53125 231.914062 152.242188 C 230.742188 153.574219 229.449219 154.804688 228.019531 155.855469 C 226.605469 156.902344 225.066406 157.769531 223.425781 158.417969 C 222.59375 158.75 221.746094 159.023438 220.882812 159.238281 C 220.578125 159.316406 218.167969 159.597656 218.105469 159.75 C 217.578125 159.824219 217.226562 159.367188 217.367188 158.871094 Z M 157.363281 138.53125 C 153.492188 141 148.152344 142.1875 143.960938 141.929688 C 143.449219 141.898438 143.148438 141.390625 143.386719 140.925781 C 146.585938 134.699219 155.742188 129.757812 162.644531 130.773438 C 162.816406 130.800781 162.929688 130.878906 163.007812 130.976562 C 163.324219 130.996094 163.632812 131.203125 163.632812 131.613281 C 163.648438 137.128906 163.300781 144.34375 157.796875 147.433594 C 157.503906 147.597656 157.042969 147.527344 156.886719 147.195312 C 155.820312 145.007812 156.308594 141.34375 157.363281 138.53125 Z M 175.042969 125.03125 C 175.105469 125.332031 174.976562 125.558594 174.785156 125.703125 C 174.699219 126.003906 174.414062 126.230469 174.003906 126.152344 C 170.621094 125.507812 167.785156 124.035156 165.34375 121.601562 C 163.832031 120.101562 161.289062 117.589844 161.355469 115.257812 C 161.367188 114.84375 161.773438 114.480469 162.199219 114.617188 C 166.945312 116.140625 173.929688 119.582031 175.042969 125.03125 Z M 195.101562 113.039062 C 195.195312 113.171875 195.226562 113.351562 195.152344 113.558594 C 194.15625 116.285156 189.171875 116.378906 186.742188 116.347656 C 182.824219 116.292969 177.863281 115.398438 175.808594 111.664062 C 175.59375 111.273438 175.796875 110.824219 176.207031 110.683594 C 182.351562 108.609375 188.835938 110.269531 194.6875 112.539062 C 194.933594 112.636719 195.054688 112.832031 195.101562 113.039062 Z M 188.242188 123.84375 C 187.554688 126.789062 189.445312 129.070312 192.1875 129.882812 C 195.246094 130.785156 198.636719 129.433594 199.597656 126.226562 C 200.4375 123.421875 198.332031 120.382812 195.671875 119.492188 C 195.582031 119.285156 195.398438 119.117188 195.089844 119.125 C 191.992188 119.199219 189.007812 120.574219 188.242188 123.84375 Z M 198.320312 125.871094 C 197.441406 128.714844 194.320312 129.410156 191.835938 128.339844 C 189.726562 127.429688 188.871094 125.375 189.863281 123.253906 C 190.796875 121.246094 192.808594 120.566406 194.878906 120.46875 C 194.949219 120.578125 195.054688 120.675781 195.21875 120.726562 C 197.21875 121.351562 198.96875 123.765625 198.320312 125.871094 Z M 249.414062 151.261719 C 250.25 148.460938 248.148438 145.421875 245.484375 144.527344 C 245.394531 144.320312 245.210938 144.15625 244.90625 144.164062 C 241.796875 144.242188 238.8125 145.617188 238.050781 148.882812 C 237.363281 151.824219 239.253906 154.105469 241.992188 154.917969 C 245.050781 155.832031 248.445312 154.480469 249.414062 151.261719 Z M 239.671875 148.289062 C 240.605469 146.285156 242.617188 145.605469 244.683594 145.507812 C 244.757812 145.617188 244.863281 145.714844 245.027344 145.765625 C 247.027344 146.386719 248.78125 148.808594 248.128906 150.90625 C 247.246094 153.75 244.128906 154.449219 241.644531 153.378906 C 239.535156 152.46875 238.679688 150.414062 239.671875 148.289062 Z M 336.992188 199.722656 C 336.902344 199.515625 336.710938 199.351562 336.410156 199.355469 C 333.304688 199.4375 330.320312 200.8125 329.554688 204.078125 C 328.871094 207.019531 330.761719 209.300781 333.5 210.113281 C 336.558594 211.019531 339.953125 209.667969 340.914062 206.457031 C 341.761719 203.65625 339.652344 200.621094 336.992188 199.722656 Z M 339.632812 206.109375 C 338.753906 208.953125 335.632812 209.648438 333.152344 208.578125 C 331.042969 207.667969 330.183594 205.613281 331.175781 203.492188 C 332.113281 201.484375 334.125 200.804688 336.191406 200.707031 C 336.265625 200.820312 336.367188 200.917969 336.535156 200.964844 C 338.535156 201.589844 340.289062 204.003906 339.632812 206.109375 Z M 138.355469 153.078125 C 139.6875 150.132812 137.414062 147.078125 134.832031 145.683594 C 134.867188 145.398438 134.738281 145.117188 134.367188 145.066406 C 131.515625 144.683594 128.304688 145.8125 127.136719 148.644531 C 125.847656 151.757812 127.933594 154.707031 130.832031 155.855469 C 133.632812 156.960938 137.058594 155.945312 138.355469 153.078125 Z M 128.605469 148.664062 C 129.582031 147 131.582031 146.234375 133.457031 146.316406 C 133.523438 146.457031 133.632812 146.578125 133.804688 146.652344 C 136.035156 147.585938 138.402344 150.496094 136.929688 152.9375 C 135.597656 155.132812 132.8125 155.445312 130.679688 154.332031 C 128.585938 153.238281 127.296875 150.882812 128.605469 148.664062 Z M 51.898438 178.679688 C 51.871094 178.691406 51.84375 178.710938 51.820312 178.722656 C 51.703125 178.667969 51.570312 178.644531 51.410156 178.679688 C 48.15625 179.425781 45.464844 182.894531 46.097656 186.304688 C 46.671875 189.4375 50.5 190.851562 53.355469 190.453125 C 56.480469 190.019531 58.835938 187.320312 58.289062 184.121094 C 57.851562 181.542969 54.839844 177.792969 51.898438 178.679688 Z M 52.730469 189.179688 C 50.492188 189.320312 47.496094 188.160156 47.34375 185.601562 C 47.183594 182.972656 49.28125 180.53125 51.757812 179.964844 C 51.785156 179.957031 51.796875 179.945312 51.820312 179.933594 C 51.941406 179.988281 52.082031 180.011719 52.25 179.964844 C 54.53125 179.277344 56.878906 182.867188 57.023438 184.757812 C 57.21875 187.261719 55.097656 189.035156 52.730469 189.179688 Z M 258.035156 122.714844 C 258.128906 122.984375 258.046875 123.199219 257.894531 123.34375 C 257.957031 123.773438 257.65625 124.25 257.132812 124.097656 C 251.667969 122.523438 245.6875 120.054688 241.328125 116.316406 C 240.984375 116.023438 241.09375 115.503906 241.429688 115.265625 C 246.753906 111.558594 256.230469 117.550781 258.035156 122.714844 Z M 171.347656 157.085938 C 171.050781 156.945312 170.910156 156.449219 171.109375 156.171875 C 176.167969 149.292969 184.035156 148.851562 191.867188 149.3125 C 192.027344 149.324219 192.148438 149.386719 192.246094 149.464844 C 192.679688 149.585938 192.992188 150.148438 192.578125 150.566406 C 189.300781 153.832031 185.390625 155.53125 180.914062 156.550781 C 178.050781 157.207031 174.1875 158.417969 171.347656 157.085938 Z M 261.566406 167.25 C 256.433594 163.480469 253.113281 155.832031 256.269531 149.765625 C 256.445312 149.421875 256.78125 149.378906 257.050781 149.496094 C 257.253906 149.441406 257.472656 149.457031 257.675781 149.628906 C 260.164062 151.75 261.484375 155.679688 262.445312 158.722656 C 263.226562 161.210938 264.015625 164.664062 262.476562 167.011719 C 262.292969 167.285156 261.863281 167.46875 261.566406 167.25 Z M 273.265625 159.800781 C 273.203125 166.507812 271.753906 174.109375 265.246094 177.457031 C 264.847656 177.65625 264.414062 177.480469 264.269531 177.058594 C 263.753906 175.558594 264.1875 174.128906 264.367188 172.582031 C 264.597656 170.539062 264.695312 168.519531 265.398438 166.5625 C 266.53125 163.410156 268.832031 161.023438 271.289062 158.851562 C 271.722656 158.46875 272.285156 158.777344 272.410156 159.195312 C 272.792969 159.085938 273.269531 159.285156 273.265625 159.800781 Z M 275.761719 174.386719 C 275.320312 175.152344 275.601562 176.8125 275.507812 177.683594 C 275.386719 178.886719 275.039062 180.035156 274.746094 181.210938 C 274.261719 183.175781 274.242188 185.664062 272.285156 186.769531 C 271.894531 186.992188 271.441406 186.78125 271.308594 186.371094 C 269.753906 181.710938 271.203125 176.808594 274.347656 173.21875 C 274.714844 172.796875 275.226562 173.054688 275.398438 173.457031 C 275.746094 173.597656 276 173.976562 275.761719 174.386719 Z M 313.921875 148.058594 C 313.355469 153.726562 307.085938 158.085938 301.777344 158.925781 C 301.570312 158.957031 301.390625 158.902344 301.25 158.796875 C 300.695312 159.132812 299.851562 158.550781 300.304688 157.945312 C 302.007812 155.671875 302.839844 153.476562 305.152344 151.609375 C 307.496094 149.726562 310.363281 148.988281 312.914062 147.484375 C 313.324219 147.246094 313.972656 147.539062 313.921875 148.058594 Z M 320.492188 134.394531 C 321.074219 134.351562 321.25 134.953125 321.035156 135.363281 C 321.160156 135.644531 321.140625 136.003906 320.828125 136.234375 C 320.511719 136.46875 320.0625 138.640625 319.820312 139.105469 C 319.28125 140.136719 318.589844 141.078125 317.78125 141.917969 C 316.199219 143.570312 314.117188 145.035156 311.738281 145 C 311.269531 144.992188 311.03125 144.585938 311.097656 144.15625 C 311.769531 140.023438 316.003906 134.714844 320.492188 134.394531 Z M 330.210938 150.722656 C 330.894531 151.101562 330.394531 152.082031 329.726562 151.933594 C 326.296875 155.875 318.839844 155.855469 314.320312 154.355469 C 313.824219 154.191406 313.691406 153.628906 314.027344 153.242188 C 317.933594 148.78125 325.109375 147.90625 330.210938 150.722656 Z M 330.988281 157.378906 C 331.015625 157.660156 330.894531 157.953125 330.613281 158.0625 C 328.070312 162.222656 323.761719 167.816406 318.578125 168.113281 C 318.214844 168.128906 317.910156 167.792969 317.910156 167.445312 C 317.949219 161.46875 324.179688 156.882812 329.847656 156.785156 C 330.296875 156.246094 331.183594 156.742188 330.988281 157.378906 Z M 307.089844 162.65625 C 306.738281 165.4375 308.980469 167.195312 311.617188 167.109375 C 314.625 167.015625 316.46875 164.957031 316.582031 162.007812 C 316.644531 160.453125 315.976562 157.574219 314.039062 157.78125 C 313.933594 157.691406 313.808594 157.621094 313.640625 157.617188 C 310.667969 157.464844 307.484375 159.566406 307.089844 162.65625 Z M 313.257812 158.957031 C 313.398438 159.144531 313.628906 159.261719 313.929688 159.164062 C 315.324219 158.707031 315.273438 162.027344 315.152344 162.765625 C 314.820312 164.785156 313.273438 165.867188 311.25 165.78125 C 309.246094 165.695312 307.878906 164.257812 308.546875 162.183594 C 309.1875 160.203125 311.257812 159.003906 313.257812 158.957031 Z M 298.773438 169.425781 C 299.214844 166.496094 300.796875 164.699219 303.191406 163.121094 C 303.824219 162.699219 304.417969 163.5625 304.046875 164.085938 C 304.050781 164.117188 304.070312 164.140625 304.070312 164.171875 C 304.371094 167.253906 304.078125 170.507812 302.222656 173.097656 C 301.582031 173.988281 299.925781 176.011719 298.847656 174.488281 C 297.996094 173.292969 298.578125 170.753906 298.773438 169.425781 Z M 304.191406 176.59375 C 307.660156 172.125 312.191406 170.125 317.652344 169.824219 C 318.15625 169.800781 318.144531 169.304688 318.554688 169.855469 C 318.570312 169.878906 318.589844 169.902344 318.609375 169.933594 C 319.820312 171.675781 314.175781 175.460938 313.011719 176.105469 C 310.472656 177.503906 307.367188 178.398438 304.480469 177.707031 C 303.949219 177.578125 303.90625 176.960938 304.191406 176.59375 Z M 279.832031 119.070312 C 280.097656 118.804688 280.421875 118.84375 280.652344 119.007812 C 280.890625 119.027344 281.113281 119.171875 281.183594 119.480469 C 281.515625 120.929688 282.421875 122.167969 282.75 123.613281 C 283.019531 124.792969 282.929688 126.078125 282.867188 127.269531 C 282.738281 129.960938 282.195312 132.460938 281.128906 134.933594 C 281.027344 135.179688 280.621094 135.335938 280.378906 135.238281 C 278.058594 134.316406 277.214844 130.632812 276.902344 128.433594 C 276.4375 125.148438 277.453125 121.429688 279.832031 119.070312 Z M 303.398438 122.054688 C 301.378906 119.410156 300.4375 115.675781 301.347656 112.453125 C 301.453125 112.089844 301.746094 111.96875 302.035156 112 C 302.253906 111.902344 302.515625 111.914062 302.730469 112.152344 C 303.734375 113.253906 305.128906 113.890625 306.125 114.988281 C 306.9375 115.890625 307.488281 117.050781 308.019531 118.121094 C 309.230469 120.523438 309.976562 122.976562 310.265625 125.648438 C 310.296875 125.917969 310.019531 126.25 309.757812 126.285156 C 307.292969 126.609375 304.75 123.820312 303.398438 122.054688 Z M 274.328125 131.152344 C 274.476562 131.605469 274.152344 131.90625 273.785156 131.949219 C 273.773438 131.957031 273.761719 131.96875 273.742188 131.96875 C 271.203125 132.695312 268.554688 131.53125 266.550781 130.011719 C 264.953125 128.792969 262.652344 126.855469 262.953125 124.597656 C 263.003906 124.226562 263.222656 123.949219 263.621094 123.929688 C 268 123.722656 272.945312 126.964844 274.328125 131.152344 Z M 277.179688 104.183594 C 277.578125 104.164062 278.046875 104.527344 277.941406 105.050781 C 277.03125 109.753906 278.71875 114.457031 275.804688 118.691406 C 275.515625 119.105469 274.898438 119.082031 274.652344 118.636719 C 272.425781 114.5625 272.351562 107.265625 276.167969 104.007812 C 276.535156 103.695312 276.972656 103.871094 277.179688 104.183594 Z M 282.175781 110.683594 C 280.867188 106.53125 282.621094 100.648438 285.222656 97.316406 C 285.484375 96.980469 286.082031 97.109375 286.265625 97.449219 C 287.929688 100.558594 288.109375 103.914062 288.433594 107.359375 C 288.6875 110.066406 288.6875 112.582031 287.214844 114.820312 C 287.292969 115.019531 287.265625 115.253906 287.027344 115.4375 C 284.511719 117.386719 282.726562 112.414062 282.175781 110.683594 Z M 238.042969 92.929688 C 238.261719 92.917969 238.488281 92.984375 238.640625 93.210938 C 239.558594 94.515625 241.023438 95.234375 241.921875 96.550781 C 242.648438 97.621094 243.136719 98.882812 243.511719 100.121094 C 244.410156 103.101562 244.332031 106.097656 243.742188 109.125 C 243.65625 109.566406 243.121094 109.710938 242.765625 109.523438 C 238.9375 107.492188 236.53125 104.175781 235.707031 99.964844 C 235.25 97.613281 234.660156 93.902344 237.40625 92.785156 C 237.6875 92.671875 237.902344 92.765625 238.042969 92.929688 Z M 249.457031 97.320312 C 249.667969 94.886719 250.195312 91.546875 252.414062 90.09375 C 252.765625 89.859375 253.101562 90.019531 253.273438 90.292969 C 253.441406 90.355469 253.582031 90.492188 253.632812 90.730469 C 253.859375 91.882812 254.457031 92.800781 254.628906 93.988281 C 254.824219 95.339844 254.835938 96.789062 254.78125 98.148438 C 254.703125 100.164062 254.269531 102.710938 252.585938 104.0625 C 252.410156 104.203125 252.171875 104.324219 251.9375 104.230469 C 249.652344 103.332031 249.273438 99.417969 249.457031 97.320312 Z M 243.328125 81.773438 C 242.515625 78.355469 243.546875 75.824219 245.328125 72.933594 C 245.527344 72.609375 245.859375 72.570312 246.132812 72.679688 C 246.414062 72.546875 246.765625 72.582031 246.953125 72.933594 C 249.644531 77.835938 248.746094 82.429688 247.609375 87.730469 C 247.523438 88.136719 246.980469 88.355469 246.628906 88.128906 C 244.683594 86.84375 243.835938 83.921875 243.328125 81.773438 Z M 257.566406 92.269531 C 254.738281 88.546875 254.445312 80.777344 258.648438 77.917969 C 259.1875 77.550781 259.699219 78.125 259.601562 78.636719 C 259.609375 78.648438 259.621094 78.664062 259.621094 78.675781 C 260.519531 81.550781 261.515625 83.75 261.09375 86.808594 C 260.8125 88.871094 260.183594 90.972656 258.597656 92.40625 C 258.261719 92.722656 257.828125 92.625 257.566406 92.269531 Z M 269.257812 92.550781 C 268.652344 91.078125 268.304688 89.480469 268.367188 87.886719 C 268.394531 87.101562 268.523438 86.324219 268.761719 85.578125 C 268.835938 85.351562 269.019531 84.535156 269.253906 84.4375 C 269.527344 84.320312 269.972656 84.5625 270.453125 84.949219 C 271.246094 85.585938 272.128906 86.59375 272.410156 86.90625 C 273.480469 88.070312 274.449219 89.328125 275.253906 90.691406 C 276.078125 92.097656 276.730469 93.660156 276.941406 95.285156 C 277.039062 96.085938 277.027344 96.90625 276.859375 97.699219 C 276.78125 98.0625 276.542969 99.558594 276.308594 99.726562 C 276.144531 99.847656 275.90625 99.828125 275.722656 99.730469 C 272.8125 98.234375 270.5 95.566406 269.257812 92.550781 Z M 225.546875 67.464844 C 225.488281 66.96875 225.914062 66.773438 226.308594 66.859375 C 226.429688 66.804688 226.570312 66.773438 226.742188 66.824219 C 231.558594 68.191406 238.375 70.945312 238.390625 76.890625 C 238.390625 77.3125 237.964844 77.652344 237.546875 77.53125 C 232.746094 76.101562 226.238281 73.214844 225.546875 67.464844 Z M 199.824219 70.496094 C 199.285156 68.019531 199 65.089844 200.945312 63.152344 C 201.152344 62.945312 201.398438 62.925781 201.605469 63.007812 C 201.863281 62.933594 202.15625 62.992188 202.339844 63.289062 C 204.328125 66.503906 206.6875 69.992188 206.40625 73.960938 C 206.300781 75.414062 205.671875 79.164062 203.496094 78.472656 C 201.335938 77.78125 200.246094 72.453125 199.824219 70.496094 Z M 212.429688 79.402344 C 211.59375 76.441406 211.890625 72.878906 213.015625 70.015625 C 213.773438 68.09375 215.035156 65.3125 217.367188 65.054688 C 217.707031 65.019531 217.902344 65.214844 217.972656 65.464844 C 218.128906 65.496094 218.289062 65.574219 218.40625 65.734375 C 219.789062 67.605469 219.023438 71.183594 218.394531 73.25 C 217.566406 75.972656 216.074219 78.875 213.25 79.867188 C 212.90625 79.988281 212.523438 79.734375 212.429688 79.402344 Z M 220.050781 78.773438 C 220.238281 78.492188 220.535156 78.429688 220.789062 78.503906 C 221.121094 78.386719 221.519531 78.496094 221.617188 78.929688 C 222.398438 82.464844 224.808594 92.152344 220.050781 94.238281 C 219.6875 94.398438 219.371094 94.320312 219.140625 94 C 215.738281 89.351562 217.046875 83.28125 220.050781 78.773438 Z M 210.15625 90.363281 C 207.953125 87.109375 206.558594 83.390625 207.875 79.511719 C 208.039062 79.023438 208.570312 78.960938 208.90625 79.164062 C 209.109375 79.164062 209.304688 79.25 209.4375 79.46875 C 211.253906 82.421875 213.738281 87.101562 211.304688 90.363281 C 211 90.773438 210.453125 90.808594 210.15625 90.363281 Z M 218.472656 95.855469 C 220.929688 98.484375 224.179688 102.496094 222.746094 106.332031 C 222.59375 106.734375 222.171875 106.953125 221.769531 106.726562 C 217.976562 104.605469 216.140625 100 217.140625 95.816406 C 217.304688 95.125 218.210938 95.261719 218.398438 95.796875 C 218.421875 95.824219 218.449219 95.828125 218.472656 95.855469 Z M 187.28125 75.910156 C 187.472656 75.707031 187.855469 75.640625 188.089844 75.804688 C 190.132812 77.242188 190.492188 80.355469 191.023438 82.625 C 191.691406 85.464844 192.65625 88.929688 190.925781 91.566406 C 190.566406 92.117188 189.808594 91.847656 189.691406 91.363281 C 189.625 91.316406 189.5625 91.25 189.519531 91.164062 C 189.507812 91.132812 189.488281 91.109375 189.476562 91.078125 C 185.984375 87.015625 182.921875 80.492188 187.28125 75.910156 Z M 165.269531 85.730469 C 165.011719 85.378906 165.289062 84.859375 165.667969 84.753906 C 171.929688 83.042969 178.4375 86.183594 182.902344 90.433594 C 183.019531 90.546875 183.0625 90.660156 183.085938 90.785156 C 183.261719 91.070312 183.25 91.476562 182.878906 91.703125 C 180.652344 93.023438 176.78125 91.523438 174.457031 90.925781 C 170.996094 90.027344 167.441406 88.722656 165.269531 85.730469 Z M 175.34375 75.433594 C 174.71875 73.355469 174.5 70.847656 176.113281 69.175781 C 176.320312 68.964844 176.664062 68.925781 176.921875 69.074219 C 179.21875 70.382812 180.726562 72.828125 181.53125 75.285156 C 181.839844 76.214844 183.171875 82.734375 181.238281 82.203125 C 180.542969 82.015625 180.066406 81.15625 179.53125 80.699219 C 178.964844 80.203125 178.375 79.726562 177.824219 79.207031 C 176.707031 78.148438 175.796875 76.933594 175.34375 75.433594 Z M 180.535156 63.746094 C 180.328125 63.5 180.359375 63.0625 180.613281 62.796875 C 180.804688 62.164062 181.765625 62.136719 181.886719 62.738281 C 183.175781 63.269531 184.125 65.207031 184.730469 66.222656 C 185.777344 67.972656 186.964844 70.242188 186.050781 72.265625 C 185.894531 72.625 185.441406 72.632812 185.140625 72.503906 C 181.421875 70.914062 180.359375 67.453125 180.535156 63.746094 Z M 158.144531 67.097656 C 157.960938 66.621094 157.550781 65.84375 158.003906 65.542969 C 158.285156 65.355469 159.070312 65.554688 159.375 65.59375 C 160.304688 65.714844 161.238281 65.9375 162.140625 66.191406 C 163.601562 66.609375 165.019531 67.1875 166.359375 67.910156 C 169.066406 69.367188 171.453125 71.402344 173.355469 73.820312 C 173.714844 74.277344 173.496094 74.902344 172.882812 74.957031 C 169.703125 75.226562 166.5 74.625 163.734375 72.992188 C 161.410156 71.625 159.128906 69.691406 158.144531 67.097656 Z M 163.039062 81.847656 C 158.996094 81.554688 155.171875 80.589844 151.949219 78.039062 C 151.589844 77.75 151.765625 77.207031 152.085938 76.992188 C 156.75 73.84375 166.414062 74.722656 170.433594 78.722656 C 170.828125 79.113281 170.566406 79.648438 170.167969 79.804688 C 168.835938 82.257812 165.441406 82.019531 163.039062 81.847656 Z M 147.871094 93.726562 C 147.125 91.890625 150.804688 89.847656 152.078125 89.238281 C 155.085938 87.789062 158.855469 87.328125 162.011719 88.527344 C 162.140625 88.574219 162.230469 88.65625 162.296875 88.746094 C 162.652344 88.800781 162.996094 89.109375 162.910156 89.5625 C 162.363281 92.308594 158.046875 93.859375 155.667969 94.355469 C 154.132812 94.679688 148.703125 95.785156 147.871094 93.726562 Z M 138.261719 85.75 C 137.851562 85.578125 137.652344 85.195312 137.863281 84.773438 C 138.949219 82.613281 141.761719 81.898438 143.945312 81.457031 C 147.246094 80.789062 150.261719 81.199219 153.269531 82.734375 C 153.742188 82.972656 153.664062 83.507812 153.355469 83.78125 C 153.339844 83.816406 153.324219 83.855469 153.296875 83.886719 C 150.195312 87.492188 142.25 87.40625 138.261719 85.75 Z M 143.679688 69.003906 C 148.085938 67.648438 152.832031 68.816406 156.75 71.03125 C 157.238281 71.304688 157.117188 71.886719 156.769531 72.136719 C 156.695312 72.222656 156.609375 72.300781 156.480469 72.351562 C 154.304688 73.183594 151.839844 73.355469 149.539062 72.960938 C 147.082031 72.546875 145.636719 71.328125 143.523438 70.214844 C 142.988281 69.949219 143.15625 69.164062 143.679688 69.003906 Z M 127.664062 75.910156 C 131.921875 71.605469 140.089844 73.261719 144.984375 75.1875 C 145.410156 75.359375 145.496094 75.804688 145.367188 76.144531 C 145.351562 76.269531 145.300781 76.40625 145.171875 76.523438 C 140.410156 80.730469 133.246094 78.730469 127.964844 77.023438 C 127.484375 76.871094 127.300781 76.277344 127.664062 75.910156 Z M 142.328125 90.128906 C 142.488281 90.277344 142.585938 90.484375 142.523438 90.753906 C 142.152344 92.347656 140.964844 93.699219 140.101562 95.070312 C 139.417969 96.179688 138.585938 97.1875 137.515625 97.945312 C 136.367188 98.765625 133.09375 100.496094 131.730469 99.347656 C 130.230469 98.078125 132.976562 94.800781 133.796875 93.859375 C 135.816406 91.535156 138.648438 89.867188 141.765625 89.800781 C 142.054688 89.800781 142.230469 89.941406 142.328125 90.128906 Z M 120.617188 84.15625 C 123.871094 80.589844 131.382812 79.597656 135.710938 81.433594 C 135.890625 81.507812 135.980469 81.621094 136.023438 81.757812 C 136.230469 81.847656 136.386719 82.03125 136.367188 82.332031 C 136.214844 84.515625 133.234375 85.339844 131.5 85.878906 C 127.914062 86.992188 124.441406 86.292969 120.910156 85.261719 C 120.417969 85.125 120.28125 84.527344 120.617188 84.15625 Z M 109.601562 87.390625 C 108.972656 86.710938 107.855469 84.96875 109.417969 84.660156 C 111.351562 84.28125 113.457031 85.035156 115.265625 85.621094 C 118.238281 86.589844 121.304688 87.519531 123.871094 89.359375 C 124.269531 89.644531 124.332031 90.234375 123.871094 90.507812 C 120.519531 92.515625 117.046875 92.125 113.773438 90.203125 C 112.453125 89.421875 110.628906 88.496094 109.601562 87.390625 Z M 129.34375 92.589844 C 129.644531 92.6875 129.882812 92.96875 129.761719 93.363281 C 129.277344 94.925781 129.308594 96.550781 128.554688 98.039062 C 127.976562 99.199219 127.121094 100.246094 126.132812 101.089844 C 125.1875 101.902344 122.734375 103.804688 121.492188 102.453125 C 120.417969 101.277344 121.597656 98.84375 122.171875 97.71875 C 123.585938 94.953125 126.128906 94.054688 128.457031 92.277344 C 128.835938 91.996094 129.203125 92.238281 129.34375 92.589844 Z M 119.46875 96.09375 C 116.90625 100.9375 111.320312 103.835938 105.859375 102.851562 C 105.511719 102.789062 105.210938 102.507812 105.253906 102.128906 C 105.886719 96.460938 113.925781 95.601562 118.3125 94.8125 C 118.582031 94.765625 118.777344 94.875 118.910156 95.035156 C 119.332031 95.089844 119.738281 95.585938 119.46875 96.09375 Z M 92.785156 97.390625 C 95.507812 92.269531 102.660156 92.097656 107.726562 92.082031 C 108.546875 92.082031 108.570312 93.277344 107.824219 93.390625 C 107.792969 93.480469 107.738281 93.566406 107.652344 93.644531 C 103.792969 97.222656 98.515625 98.503906 93.359375 98.386719 C 92.839844 98.375 92.546875 97.835938 92.785156 97.390625 Z M 332.589844 180.023438 C 334.9375 179.125 337.070312 179.332031 339.480469 178.9375 C 340.140625 178.828125 340.578125 179.523438 340.128906 180.050781 C 337.339844 183.328125 332.664062 184.757812 328.484375 184.9375 C 328.253906 184.949219 328.09375 184.851562 327.984375 184.714844 C 327.367188 184.898438 326.875 183.921875 327.507812 183.480469 C 329.3125 182.214844 330.4375 180.851562 332.589844 180.023438 Z M 316.753906 197.082031 C 315.066406 197.664062 313.421875 198.707031 311.617188 198.933594 C 311.042969 199.003906 310.480469 198.964844 309.917969 198.902344 C 310.945312 199.742188 311.878906 200.71875 312.308594 201.667969 C 312.492188 202.070312 312.351562 202.5 311.910156 202.648438 C 307.648438 204.035156 304.382812 200.292969 302.289062 197.269531 C 302.09375 196.984375 302.167969 196.722656 302.351562 196.539062 C 302.40625 196.355469 302.527344 196.183594 302.753906 196.089844 C 307.667969 194.097656 311.78125 193.945312 316.761719 195.804688 C 317.371094 196.03125 317.398438 196.863281 316.753906 197.082031 Z M 328.675781 199.894531 C 326.074219 202.550781 321.1875 201.3125 318.191406 200.214844 C 318.089844 200.175781 317.984375 200.113281 317.890625 200.035156 C 317.183594 200.28125 316.609375 199.234375 317.328125 198.855469 C 320.730469 197.046875 324.851562 197.691406 328.382812 198.78125 C 328.859375 198.929688 329.03125 199.527344 328.675781 199.894531 Z M 300.511719 200.390625 C 300.316406 201.515625 301.324219 203.441406 301.527344 204.566406 C 301.710938 205.589844 301.820312 206.632812 301.820312 207.675781 C 301.820312 209.753906 301.417969 211.714844 300.035156 213.320312 C 299.796875 213.59375 299.335938 213.558594 299.09375 213.320312 C 295.9375 210.207031 296.007812 202.519531 298.828125 199.3125 C 299.203125 198.890625 299.726562 199.15625 299.886719 199.570312 C 300.242188 199.625 300.589844 199.929688 300.511719 200.390625 Z M 312.007812 219.140625 C 307.457031 217.421875 305.117188 210.953125 306.203125 206.511719 C 306.359375 205.894531 307.089844 205.929688 307.386719 206.328125 C 307.5625 206.347656 307.734375 206.4375 307.851562 206.640625 C 308.535156 207.820312 309.648438 208.617188 310.414062 209.734375 C 311.121094 210.773438 311.5625 212.015625 311.984375 213.191406 C 312.613281 214.964844 313.703125 217.019531 312.761719 218.839844 C 312.632812 219.078125 312.273438 219.238281 312.007812 219.140625 Z M 317.949219 203.296875 C 318.101562 202.957031 318.398438 202.902344 318.664062 203 C 318.894531 202.972656 319.144531 203.042969 319.3125 203.296875 C 320.527344 205.179688 320.945312 207.539062 320.851562 209.753906 C 320.804688 210.941406 320.59375 213.476562 319.160156 213.929688 C 317.605469 214.417969 317.085938 212.039062 316.859375 211.019531 C 316.257812 208.339844 316.828125 205.742188 317.949219 203.296875 Z M 301.765625 222.316406 C 301.453125 220.007812 301.789062 217.667969 303.386719 215.898438 C 303.734375 215.515625 304.210938 215.710938 304.40625 216.066406 C 304.558594 216.101562 304.695312 216.199219 304.785156 216.390625 C 306.007812 218.957031 306.667969 221.203125 306.230469 224.082031 C 306.058594 225.183594 305.660156 228.039062 303.90625 227.214844 C 302.503906 226.554688 301.9375 223.574219 301.765625 222.316406 Z M 317.636719 216.683594 C 320.453125 219.503906 325.023438 225.726562 322.492188 229.910156 C 322.320312 230.199219 321.875 230.363281 321.582031 230.148438 C 317.195312 227.019531 316.101562 222.261719 316.070312 217.148438 C 316.0625 216.628906 316.554688 216.425781 316.945312 216.542969 C 317.164062 216.449219 317.421875 216.460938 317.636719 216.683594 Z M 332.90625 220.445312 C 332.851562 220.769531 332.398438 221.03125 332.085938 220.910156 C 327.421875 219.050781 324.285156 214.359375 324.832031 209.324219 C 324.871094 209 325.085938 208.804688 325.335938 208.726562 C 325.519531 208.519531 325.8125 208.421875 326.117188 208.605469 C 329.910156 210.910156 333.71875 215.6875 332.90625 220.445312 Z M 315.660156 230.242188 C 316.257812 232.722656 315.609375 235.21875 314.847656 237.582031 C 314.65625 238.160156 313.972656 238.191406 313.628906 237.738281 C 311.941406 235.511719 310.957031 233.03125 310.625 230.257812 C 310.457031 228.824219 310.015625 226.015625 310.921875 224.628906 C 311.066406 224.199219 311.605469 223.90625 311.992188 224.339844 C 313.539062 226.0625 315.101562 227.917969 315.660156 230.242188 Z M 174.125 133.472656 C 179.453125 128.707031 188.449219 129.855469 194.273438 133.082031 C 194.699219 133.320312 194.65625 133.785156 194.414062 134.070312 C 194.363281 134.273438 194.234375 134.460938 193.984375 134.546875 C 189.84375 135.992188 186.6875 137.441406 182.167969 137.121094 C 179.488281 136.933594 176.132812 136.339844 174.121094 134.414062 C 173.882812 134.175781 173.863281 133.710938 174.125 133.472656 Z M 161.5625 122.453125 C 162.035156 122.535156 162.40625 123.136719 161.957031 123.5625 C 157.167969 128.089844 150.054688 127.386719 144.382812 125 C 144.035156 124.855469 143.699219 124.410156 143.988281 124.023438 C 146.074219 121.253906 150.207031 120.84375 153.4375 120.597656 C 155.828125 120.414062 159.929688 120.238281 161.5625 122.453125 Z M 207.902344 128.089844 C 205.648438 126.28125 204.621094 124.164062 205.261719 121.28125 C 205.359375 120.835938 205.875 120.703125 206.242188 120.886719 C 209.855469 122.691406 212.226562 125.886719 213.703125 129.582031 C 213.945312 130.199219 213.230469 130.542969 212.746094 130.292969 C 211.316406 131.085938 208.871094 128.867188 207.902344 128.089844 Z M 154.964844 157.761719 C 153.980469 155.867188 156.207031 152.613281 157.4375 151.34375 C 159.515625 149.195312 162.488281 147.738281 165.507812 147.832031 C 165.605469 147.832031 165.691406 147.855469 165.773438 147.894531 C 166.15625 147.765625 166.671875 147.964844 166.675781 148.5 C 166.707031 151.652344 163.324219 154.742188 161.011719 156.527344 C 159.886719 157.398438 156.078125 159.917969 154.964844 157.761719 Z M 139.992188 135.109375 C 136.953125 135.742188 133.816406 135.613281 130.726562 135.691406 C 130.21875 135.703125 129.902344 135.117188 130.152344 134.6875 C 132.769531 130.179688 142.480469 128.535156 146.941406 130.121094 C 147.007812 130.144531 147.058594 130.1875 147.113281 130.222656 C 147.613281 130.308594 147.917969 131.097656 147.351562 131.464844 C 144.910156 133.0625 142.90625 134.503906 139.992188 135.109375 Z M 111.882812 124.976562 C 111.554688 124.921875 111.296875 124.46875 111.417969 124.15625 C 112.375 121.699219 115.007812 120.339844 117.253906 119.242188 C 120.851562 117.472656 123.835938 117.234375 127.773438 117.265625 C 128.128906 117.269531 128.324219 117.496094 128.386719 117.761719 C 128.953125 117.742188 129.34375 118.617188 128.734375 119.007812 C 127.363281 119.894531 126.484375 121.332031 125.070312 122.21875 C 123.933594 122.929688 122.65625 123.460938 121.394531 123.914062 C 118.3125 125.027344 115.125 125.507812 111.882812 124.976562 Z M 62.09375 129.449219 C 62.773438 126.898438 65.238281 125.257812 67.347656 123.90625 C 70.722656 121.746094 73.667969 121.179688 77.582031 120.777344 C 77.929688 120.738281 78.15625 120.941406 78.246094 121.199219 C 78.808594 121.113281 79.292969 121.945312 78.738281 122.394531 C 77.46875 123.429688 76.753906 124.957031 75.453125 125.992188 C 74.398438 126.824219 73.1875 127.496094 71.984375 128.089844 C 69.042969 129.539062 65.9375 130.378906 62.652344 130.207031 C 62.316406 130.195312 62.007812 129.773438 62.09375 129.449219 Z M 109.003906 144.167969 C 108.589844 143.972656 108.617188 143.421875 108.871094 143.121094 C 112.90625 138.363281 120.011719 135.949219 126.066406 137.667969 C 126.152344 137.691406 126.21875 137.734375 126.28125 137.777344 C 126.832031 137.453125 127.664062 138.039062 127.21875 138.644531 C 123.597656 143.527344 114.699219 146.835938 109.003906 144.167969 Z M 150.800781 147.109375 C 151.050781 147.34375 151.160156 147.753906 150.886719 148.089844 C 149.605469 149.628906 149.667969 152.230469 148.921875 154.058594 C 148.328125 155.5 147.503906 156.847656 146.296875 157.855469 C 145.128906 158.832031 142.722656 160.167969 142.199219 157.875 C 141.71875 155.734375 143.117188 152.496094 144.21875 150.730469 C 145.546875 148.597656 147.523438 146.554688 150.171875 146.457031 C 150.597656 146.429688 150.8125 146.765625 150.800781 147.109375 Z M 92.4375 149.160156 C 92.472656 151.78125 92.324219 154.96875 89.859375 156.496094 C 89.621094 156.644531 89.242188 156.609375 89.054688 156.394531 C 84.957031 151.75 86.71875 141.917969 90.449219 137.59375 C 90.871094 137.105469 91.507812 137.519531 91.554688 138.035156 C 91.671875 138.109375 91.769531 138.21875 91.8125 138.390625 C 92.675781 141.613281 92.382812 145.765625 92.4375 149.160156 Z M 97.5 156.257812 C 95.714844 153.058594 96.730469 149.160156 97.738281 145.863281 C 98.722656 142.640625 99.941406 139.148438 102.785156 137.109375 C 103.1875 136.824219 103.566406 137.085938 103.695312 137.453125 C 103.953125 137.519531 104.167969 137.722656 104.167969 138.066406 C 104.148438 144.785156 103.554688 151.421875 98.550781 156.398438 C 98.246094 156.691406 97.707031 156.636719 97.5 156.257812 Z M 108.851562 157.511719 C 107.199219 160.199219 106.476562 163.097656 104.367188 165.523438 C 102.925781 167.183594 100.980469 169.082031 98.632812 169.058594 C 98.257812 169.054688 97.984375 168.753906 97.964844 168.394531 C 97.671875 162.839844 102.085938 156.492188 107.898438 156.136719 C 108.25 156.113281 108.449219 156.332031 108.507812 156.59375 C 108.851562 156.730469 109.101562 157.109375 108.851562 157.511719 Z M 125.09375 166.3125 C 125.296875 163.367188 126.273438 160.734375 128.183594 158.472656 C 128.484375 158.113281 128.894531 158.242188 129.117188 158.527344 C 129.351562 158.484375 129.597656 158.570312 129.730469 158.859375 C 130.867188 161.296875 130.746094 164.167969 130.046875 166.722656 C 129.65625 168.160156 128.625 171.144531 126.78125 171.296875 C 124.585938 171.46875 125.015625 167.523438 125.09375 166.3125 Z M 90.398438 186.671875 C 88.453125 182.34375 88.742188 172.464844 93.757812 170.375 C 94.113281 170.226562 94.375 170.410156 94.484375 170.6875 C 94.699219 170.773438 94.863281 170.96875 94.851562 171.265625 C 94.691406 176.160156 96.171875 181.035156 94.007812 185.765625 C 93.210938 187.511719 91.453125 189.007812 90.398438 186.671875 Z M 113.425781 177.867188 C 115.402344 175.328125 118.417969 173.914062 121.609375 173.871094 C 121.867188 173.867188 122.035156 173.996094 122.140625 174.160156 C 122.484375 174.148438 122.855469 174.363281 122.90625 174.789062 C 123.132812 176.710938 119.730469 179.210938 118.53125 180.402344 C 117.488281 181.449219 116.335938 182.410156 114.953125 182.960938 C 114.304688 183.21875 112.929688 183.808594 112.226562 183.386719 C 110.386719 182.300781 112.660156 178.851562 113.425781 177.867188 Z M 85.792969 180.574219 C 85.855469 184.09375 87.339844 189.816406 83.824219 192.183594 C 83.574219 192.347656 83.226562 192.269531 83.015625 192.078125 C 81.097656 190.28125 81.152344 187.363281 81.566406 184.953125 C 81.867188 183.199219 82.417969 179.9375 84.578125 179.558594 C 84.945312 179.5 85.207031 179.707031 85.328125 179.96875 C 85.578125 180.035156 85.789062 180.238281 85.792969 180.574219 Z M 80.933594 209.558594 C 79.066406 207.886719 81.8125 204.109375 82.949219 202.8125 C 85.003906 200.464844 87.878906 198.378906 91.046875 198.015625 C 91.269531 197.992188 91.425781 198.066406 91.535156 198.1875 C 91.902344 198.128906 92.332031 198.328125 92.34375 198.8125 C 92.429688 202.242188 90.042969 205.238281 87.496094 207.289062 C 86.199219 208.324219 82.609375 211.0625 80.933594 209.558594 Z M 63.128906 186.9375 C 63.714844 190.890625 66.230469 194.433594 66.050781 198.519531 C 65.992188 199.9375 65.429688 202.53125 63.605469 201.125 C 61.839844 199.761719 61.074219 196.078125 60.699219 194.058594 C 60.234375 191.503906 60.066406 188.582031 61.886719 186.515625 C 62.164062 186.203125 62.527344 186.269531 62.761719 186.488281 C 62.945312 186.550781 63.09375 186.683594 63.128906 186.9375 Z M 41.957031 171.359375 C 42.378906 167.535156 44.523438 162.4375 46.902344 159.410156 C 49.570312 156.007812 53.605469 153.75 57.960938 153.75 C 58.050781 153.75 58.125 153.777344 58.199219 153.800781 C 58.53125 153.695312 58.902344 153.808594 58.980469 154.242188 C 59.269531 155.855469 58.425781 156.890625 57.769531 158.332031 C 56.96875 160.101562 56.339844 161.726562 55.097656 163.261719 C 53.460938 165.285156 51.574219 167.242188 49.398438 168.703125 C 47.398438 170.050781 45.0625 170.777344 42.964844 171.933594 C 42.5625 172.152344 41.898438 171.886719 41.957031 171.359375 Z M 69.949219 161.832031 C 69.867188 164.515625 66.320312 167.152344 64.710938 169.082031 C 62.164062 172.140625 58.910156 175.082031 54.730469 175.1875 C 54.296875 175.199219 53.972656 174.753906 54.089844 174.34375 C 55.160156 170.5625 56.058594 167.1875 59.238281 164.644531 C 61.488281 162.847656 65.824219 160.464844 68.828125 161.1875 C 68.894531 161.207031 68.9375 161.238281 68.988281 161.261719 C 69.390625 161.085938 69.960938 161.269531 69.949219 161.832031 Z M 37.054688 192.800781 C 36.652344 186.191406 36.769531 177.328125 44.703125 175.152344 C 45.386719 174.960938 45.734375 175.800781 45.375 176.226562 C 45.398438 176.40625 45.367188 176.59375 45.226562 176.765625 C 44.144531 178.105469 44.167969 180.421875 43.765625 182.023438 C 43.324219 183.796875 42.671875 185.558594 41.960938 187.242188 C 41.0625 189.386719 40.222656 192.195312 38.058594 193.371094 C 37.59375 193.625 37.085938 193.308594 37.054688 192.800781 Z M 74.613281 220.988281 C 73.121094 222.210938 71.289062 223.691406 69.246094 223.246094 C 68.902344 223.171875 68.675781 222.753906 68.78125 222.425781 C 70.273438 217.582031 74.253906 213.894531 79.476562 213.871094 C 79.746094 213.871094 79.917969 214.003906 80.019531 214.179688 C 80.414062 214.285156 80.722656 214.695312 80.429688 215.125 C 78.863281 217.433594 76.753906 219.234375 74.613281 220.988281 Z M 64.078125 225.476562 C 65.613281 229.445312 68.007812 235.160156 64.503906 238.582031 C 64.1875 238.894531 63.542969 238.960938 63.238281 238.582031 C 59.894531 234.40625 58.980469 228.414062 61.882812 223.746094 C 62.394531 222.921875 63.558594 223.433594 63.550781 224.199219 C 63.582031 224.253906 63.625 224.296875 63.648438 224.363281 C 63.679688 224.445312 63.714844 224.535156 63.746094 224.621094 C 64.023438 224.808594 64.179688 225.121094 64.078125 225.476562 Z M 98.613281 130.714844 C 101.421875 131.820312 104.839844 130.8125 106.136719 127.941406 C 107.46875 124.988281 105.359375 121.914062 102.5625 120.652344 C 101.109375 120 99.46875 119.839844 98.039062 120.453125 C 96.648438 121.042969 95.5 122.101562 94.917969 123.507812 C 93.628906 126.621094 95.714844 129.570312 98.613281 130.714844 Z M 96.398438 123.519531 C 97.652344 121.386719 100.085938 121.039062 102.234375 121.894531 C 104.320312 122.726562 105.988281 125.710938 104.722656 127.789062 C 103.390625 129.984375 100.605469 130.296875 98.472656 129.183594 C 96.375 128.097656 95.089844 125.746094 96.398438 123.519531 Z M 257.285156 107.699219 C 255.992188 110.8125 258.078125 113.761719 260.976562 114.910156 C 263.785156 116.015625 267.203125 115.007812 268.5 112.140625 C 269.832031 109.1875 267.722656 106.109375 264.929688 104.851562 C 263.472656 104.195312 261.835938 104.035156 260.402344 104.648438 C 259.019531 105.234375 257.863281 106.292969 257.285156 107.699219 Z M 264.59375 106.085938 C 266.679688 106.917969 268.347656 109.902344 267.082031 111.980469 C 265.75 114.175781 262.964844 114.488281 260.832031 113.375 C 258.734375 112.28125 257.449219 109.933594 258.757812 107.710938 C 260.019531 105.585938 262.453125 105.230469 264.59375 106.085938 Z M 263.511719 91.511719 C 263.722656 91.277344 263.96875 91.21875 264.199219 91.25 C 264.457031 91.210938 264.734375 91.253906 264.972656 91.4375 C 267.839844 93.714844 269.796875 99.621094 267.949219 102.964844 C 267.734375 103.359375 267.105469 103.570312 266.726562 103.289062 C 263.957031 101.253906 260.625 94.628906 263.511719 91.511719 Z M 263.511719 91.511719 " fill-opacity="1" fill-rule="nonzero"/></g><g fill="#ffffff" fill-opacity="1"><g transform="translate(65.356072, 82.21725)"><g><path d="M 10.34375 -12.515625 L 7.953125 -31.375 L 10.96875 -33.1875 L 23.78125 -14.234375 L 20.765625 -12.421875 L 9.890625 -28.796875 L 9.765625 -28.734375 L 12.375 -7.40625 L 11.96875 -7.15625 L -5.015625 -18.953125 L -5.140625 -18.890625 L 3.734375 -2.234375 L 2.421875 -1.453125 L -8.1875 -21.71875 L -5.4375 -23.359375 Z M 10.34375 -12.515625 "/></g></g></g><g fill="#ffffff" fill-opacity="1"><g transform="translate(91.329597, 67.014751)"><g><path d="M 10.78125 -4.890625 L 7.71875 -3.5 L 4.21875 -11.21875 L -8.8125 -21.078125 L -5.375 -22.640625 L 5.84375 -13.34375 L 5.875 -27.75 L 7.4375 -28.453125 L 7.203125 -12.765625 Z M 10.78125 -4.890625 "/></g></g></g><g fill="#ffffff" fill-opacity="1"><g transform="translate(108.889579, 59.233455)"><g/></g></g><g fill="#ffffff" fill-opacity="1"><g transform="translate(116.761997, 55.960377)"><g><path d="M 2.96875 -12.6875 L 6.1875 -1.828125 L 2.984375 -0.890625 L -3.5 -22.796875 L -0.296875 -23.734375 L 2.59375 -13.9375 L 12.609375 -16.90625 L 9.71875 -26.703125 L 12.953125 -27.65625 L 19.4375 -5.75 L 16.203125 -4.796875 L 12.984375 -15.65625 Z M 2.96875 -12.6875 "/></g></g></g><g fill="#ffffff" fill-opacity="1"><g transform="translate(138.635339, 49.40235)"><g><path d="M 9.15625 -25.28125 C 12.101562 -25.8125 14.710938 -25.28125 16.984375 -23.6875 C 19.253906 -22.101562 20.695312 -19.59375 21.3125 -16.15625 C 21.71875 -13.9375 21.679688 -11.921875 21.203125 -10.109375 C 20.734375 -8.304688 19.960938 -6.847656 18.890625 -5.734375 C 16.785156 -3.515625 14.269531 -2.140625 11.34375 -1.609375 C 8.425781 -1.085938 5.832031 -1.632812 3.5625 -3.25 C 1.300781 -4.863281 -0.140625 -7.390625 -0.765625 -10.828125 C -1.085938 -12.617188 -1.117188 -14.28125 -0.859375 -15.8125 C -0.609375 -17.34375 -0.15625 -18.632812 0.5 -19.6875 C 1.164062 -20.75 1.988281 -21.679688 2.96875 -22.484375 C 4.757812 -23.929688 6.820312 -24.863281 9.15625 -25.28125 Z M 5.75 -5.046875 C 6.507812 -4.160156 7.441406 -3.523438 8.546875 -3.140625 C 9.648438 -2.753906 10.851562 -2.675781 12.15625 -2.90625 C 13.457031 -3.144531 14.554688 -3.6875 15.453125 -4.53125 C 16.347656 -5.375 16.988281 -6.378906 17.375 -7.546875 C 18.132812 -9.878906 18.289062 -12.269531 17.84375 -14.71875 C 17.300781 -17.726562 16.269531 -20.046875 14.75 -21.671875 C 13.039062 -23.484375 10.644531 -24.113281 7.5625 -23.5625 C 5.507812 -22.394531 4.082031 -20.769531 3.28125 -18.6875 C 2.488281 -16.601562 2.304688 -14.375 2.734375 -12 C 3.265625 -9.101562 4.269531 -6.785156 5.75 -5.046875 Z M 5.75 -5.046875 "/></g></g></g><g fill="#ffffff" fill-opacity="1"><g transform="translate(162.530541, 44.866605)"><g><path d="M 15 -6.234375 L 21.6875 -24.015625 L 25.203125 -24.203125 L 27.6875 -1.46875 L 24.171875 -1.28125 L 22.203125 -20.828125 L 22.0625 -20.828125 L 14.40625 -0.765625 L 13.921875 -0.734375 L 4.421875 -19.09375 L 4.28125 -19.09375 L 4.34375 -0.234375 L 2.828125 -0.15625 L 2.90625 -23.03125 L 6.09375 -23.203125 Z M 15 -6.234375 "/></g></g></g><g fill="#ffffff" fill-opacity="1"><g transform="translate(192.592585, 43.565046)"><g><path d="M 3.109375 0.1875 L 4.484375 -22.609375 L 18.296875 -21.765625 L 17.828125 -19.5 L 11.484375 -20.953125 C 10.347656 -21.015625 9.085938 -20.894531 7.703125 -20.59375 L 7.203125 -12.21875 L 14.84375 -11.75 L 14.765625 -10.453125 L 7.125 -10.921875 L 6.515625 -0.859375 L 17.265625 -1.28125 L 16.78125 1.015625 Z M 3.109375 0.1875 "/></g></g></g><g fill="#ffffff" fill-opacity="1"><g transform="translate(211.921132, 44.911029)"><g/></g></g><g fill="#ffffff" fill-opacity="1"><g transform="translate(220.55174, 45.878896)"><g><path d="M 3.0625 0.578125 L 7.25 -21.875 L 10.5625 -21.265625 L 6.71875 -0.640625 C 8.03125 0.015625 9.101562 0.421875 9.9375 0.578125 L 16.265625 0.6875 L 15.4375 2.875 Z M 3.0625 0.578125 "/></g></g></g><g fill="#ffffff" fill-opacity="1"><g transform="translate(236.866081, 48.860166)"><g><path d="M 3 0.828125 L 9.03125 -21.203125 L 22.375 -17.546875 L 21.4375 -15.40625 L 15.546875 -18.15625 C 14.453125 -18.445312 13.191406 -18.582031 11.765625 -18.5625 L 9.5625 -10.46875 L 16.953125 -8.4375 L 16.609375 -7.1875 L 9.21875 -9.21875 L 6.546875 0.5 L 17.15625 2.296875 L 16.21875 4.4375 Z M 3 0.828125 "/></g></g></g><g fill="#ffffff" fill-opacity="1"><g transform="translate(255.247367, 53.812961)"><g><path d="M 2.90625 1.109375 L 11 -20.25 L 17.09375 -17.953125 C 19.570312 -17.015625 21.382812 -15.847656 22.53125 -14.453125 C 23.675781 -13.054688 23.929688 -11.519531 23.296875 -9.84375 C 22.847656 -8.65625 22.039062 -7.78125 20.875 -7.21875 C 19.71875 -6.664062 18.3125 -6.453125 16.65625 -6.578125 C 18.476562 -5.453125 19.707031 -4.222656 20.34375 -2.890625 C 20.988281 -1.554688 21.09375 -0.320312 20.65625 0.8125 C 20.226562 1.957031 19.566406 2.820312 18.671875 3.40625 C 17.785156 3.988281 16.8125 4.328125 15.75 4.421875 C 13.582031 4.628906 11.535156 4.367188 9.609375 3.640625 Z M 10.421875 -9.3125 L 12.75 -8.421875 C 14.707031 -7.679688 16.273438 -7.582031 17.453125 -8.125 C 18.628906 -8.675781 19.46875 -9.609375 19.96875 -10.921875 C 20.300781 -11.796875 20.304688 -12.707031 19.984375 -13.65625 C 19.671875 -14.601562 18.972656 -15.492188 17.890625 -16.328125 C 16.421875 -16.878906 14.9375 -17.195312 13.4375 -17.28125 Z M 10.0625 -8.375 L 6.578125 0.828125 C 7.191406 1.316406 8.21875 1.832031 9.65625 2.375 C 11.09375 2.914062 12.519531 3 13.9375 2.625 C 15.363281 2.257812 16.347656 1.367188 16.890625 -0.046875 C 17.429688 -1.460938 17.269531 -2.882812 16.40625 -4.3125 C 15.539062 -5.738281 14.242188 -6.78125 12.515625 -7.4375 Z M 10.0625 -8.375 "/></g></g></g><g fill="#ffffff" fill-opacity="1"><g transform="translate(275.67208, 61.601212)"><g><path d="M 2.796875 1.375 L 12.875 -19.125 L 25.296875 -13.015625 L 23.96875 -11.09375 L 18.671875 -14.890625 C 17.648438 -15.390625 16.445312 -15.765625 15.0625 -16.015625 L 11.375 -8.484375 L 18.234375 -5.109375 L 17.65625 -3.953125 L 10.796875 -7.328125 L 6.34375 1.71875 L 16.40625 5.484375 L 15.09375 7.421875 Z M 2.796875 1.375 "/></g></g></g><g fill="#ffffff" fill-opacity="1"><g transform="translate(292.780185, 69.877603)"><g><path d="M 17.203125 11.09375 L 16.6875 10.78125 L 13.8125 -13.234375 L 13.703125 -13.3125 L 3.9375 2.4375 L 2.640625 1.640625 L 14.671875 -17.78125 L 16.84375 -16.4375 L 19.28125 4.59375 L 19.40625 4.671875 L 28.140625 -9.4375 L 29.4375 -8.640625 Z M 17.203125 11.09375 "/></g></g></g><g fill="#ffffff" fill-opacity="1"><g transform="translate(75.11421, 359.128369)"><g><path d="M 4.875 -12.234375 L 0.078125 -12.234375 L 0.078125 -13.984375 L 11.640625 -13.984375 L 11.640625 -12.234375 L 6.84375 -12.234375 L 6.84375 0 L 4.875 0 Z M 4.875 -12.234375 "/></g></g></g><g fill="#ffffff" fill-opacity="1"><g transform="translate(87.275694, 359.128369)"><g><path d="M 2.09375 -13.984375 L 4.09375 -13.984375 L 4.09375 0 L 2.09375 0 Z M 2.09375 -13.984375 "/></g></g></g><g fill="#ffffff" fill-opacity="1"><g transform="translate(93.905741, 359.128369)"><g><path d="M 14.125 -13.984375 L 14.125 0 L 12.484375 0 L 4.09375 -10.421875 L 4.09375 0 L 2.09375 0 L 2.09375 -13.984375 L 3.734375 -13.984375 L 12.125 -3.546875 L 12.125 -13.984375 Z M 14.125 -13.984375 "/></g></g></g><g fill="#ffffff" fill-opacity="1"><g transform="translate(110.560268, 359.128369)"><g><path d="M 7.453125 -4.828125 L 7.453125 0 L 5.46875 0 L 5.46875 -4.875 L -0.078125 -13.984375 L 2.0625 -13.984375 L 6.53125 -6.609375 L 11.015625 -13.984375 L 13 -13.984375 Z M 7.453125 -4.828125 "/></g></g></g><g fill="#ffffff" fill-opacity="1"><g transform="translate(123.919897, 359.128369)"><g/></g></g><g fill="#ffffff" fill-opacity="1"><g transform="translate(129.731213, 359.128369)"><g><path d="M 2.09375 -13.984375 L 4.09375 -13.984375 L 4.09375 -1.734375 L 11.65625 -1.734375 L 11.65625 0 L 2.09375 0 Z M 2.09375 -13.984375 "/></g></g></g><g fill="#ffffff" fill-opacity="1"><g transform="translate(142.032467, 359.128369)"><g><path d="M 2.09375 -13.984375 L 4.09375 -13.984375 L 4.09375 0 L 2.09375 0 Z M 2.09375 -13.984375 "/></g></g></g><g fill="#ffffff" fill-opacity="1"><g transform="translate(148.662513, 359.128369)"><g><path d="M 14.234375 -13.984375 L 8.109375 0 L 6.125 0 L -0.015625 -13.984375 L 2.140625 -13.984375 L 7.171875 -2.5 L 12.234375 -13.984375 Z M 14.234375 -13.984375 "/></g></g></g><g fill="#ffffff" fill-opacity="1"><g transform="translate(163.320126, 359.128369)"><g><path d="M 2.09375 -13.984375 L 4.09375 -13.984375 L 4.09375 0 L 2.09375 0 Z M 2.09375 -13.984375 "/></g></g></g><g fill="#ffffff" fill-opacity="1"><g transform="translate(169.950177, 359.128369)"><g><path d="M 14.125 -13.984375 L 14.125 0 L 12.484375 0 L 4.09375 -10.421875 L 4.09375 0 L 2.09375 0 L 2.09375 -13.984375 L 3.734375 -13.984375 L 12.125 -3.546875 L 12.125 -13.984375 Z M 14.125 -13.984375 "/></g></g></g><g fill="#ffffff" fill-opacity="1"><g transform="translate(186.604706, 359.128369)"><g><path d="M 11.78125 -7.0625 L 13.703125 -7.0625 L 13.703125 -1.625 C 13.003906 -1.050781 12.195312 -0.609375 11.28125 -0.296875 C 10.363281 0.00390625 9.40625 0.15625 8.40625 0.15625 C 7 0.15625 5.726562 -0.148438 4.59375 -0.765625 C 3.457031 -1.390625 2.566406 -2.242188 1.921875 -3.328125 C 1.273438 -4.410156 0.953125 -5.628906 0.953125 -6.984375 C 0.953125 -8.347656 1.273438 -9.570312 1.921875 -10.65625 C 2.566406 -11.75 3.457031 -12.601562 4.59375 -13.21875 C 5.738281 -13.832031 7.023438 -14.140625 8.453125 -14.140625 C 9.566406 -14.140625 10.578125 -13.957031 11.484375 -13.59375 C 12.398438 -13.226562 13.175781 -12.691406 13.8125 -11.984375 L 12.578125 -10.75 C 11.460938 -11.820312 10.113281 -12.359375 8.53125 -12.359375 C 7.457031 -12.359375 6.5 -12.128906 5.65625 -11.671875 C 4.8125 -11.210938 4.148438 -10.570312 3.671875 -9.75 C 3.191406 -8.9375 2.953125 -8.015625 2.953125 -6.984375 C 2.953125 -5.972656 3.191406 -5.054688 3.671875 -4.234375 C 4.148438 -3.421875 4.8125 -2.78125 5.65625 -2.3125 C 6.5 -1.851562 7.445312 -1.625 8.5 -1.625 C 9.757812 -1.625 10.851562 -1.921875 11.78125 -2.515625 Z M 11.78125 -7.0625 "/></g></g></g><g fill="#ffffff" fill-opacity="1"><g transform="translate(202.460465, 359.128369)"><g/></g></g><g fill="#ffffff" fill-opacity="1"><g transform="translate(208.271787, 359.128369)"><g><path d="M 12.234375 -1.734375 L 12.234375 0 L 2.09375 0 L 2.09375 -13.984375 L 11.96875 -13.984375 L 11.96875 -12.234375 L 4.09375 -12.234375 L 4.09375 -7.953125 L 11.109375 -7.953125 L 11.109375 -6.25 L 4.09375 -6.25 L 4.09375 -1.734375 Z M 12.234375 -1.734375 "/></g></g></g><g fill="#ffffff" fill-opacity="1"><g transform="translate(222.090692, 359.128369)"><g><path d="M 10.890625 0 L 6.6875 -5.765625 L 2.5625 0 L 0.265625 0 L 5.515625 -7.171875 L 0.578125 -13.984375 L 2.859375 -13.984375 L 6.765625 -8.609375 L 10.640625 -13.984375 L 12.8125 -13.984375 L 7.890625 -7.234375 L 13.171875 0 Z M 10.890625 0 "/></g></g></g><g fill="#ffffff" fill-opacity="1"><g transform="translate(235.969513, 359.128369)"><g><path d="M 7.546875 -13.984375 C 9.359375 -13.984375 10.78125 -13.546875 11.8125 -12.671875 C 12.851562 -11.804688 13.375 -10.617188 13.375 -9.109375 C 13.375 -7.585938 12.851562 -6.394531 11.8125 -5.53125 C 10.78125 -4.664062 9.359375 -4.234375 7.546875 -4.234375 L 4.09375 -4.234375 L 4.09375 0 L 2.09375 0 L 2.09375 -13.984375 Z M 7.484375 -5.96875 C 8.753906 -5.96875 9.71875 -6.238281 10.375 -6.78125 C 11.039062 -7.320312 11.375 -8.097656 11.375 -9.109375 C 11.375 -10.117188 11.039062 -10.890625 10.375 -11.421875 C 9.71875 -11.960938 8.753906 -12.234375 7.484375 -12.234375 L 4.09375 -12.234375 L 4.09375 -5.96875 Z M 7.484375 -5.96875 "/></g></g></g><g fill="#ffffff" fill-opacity="1"><g transform="translate(250.826813, 359.128369)"><g><path d="M 12.234375 -1.734375 L 12.234375 0 L 2.09375 0 L 2.09375 -13.984375 L 11.96875 -13.984375 L 11.96875 -12.234375 L 4.09375 -12.234375 L 4.09375 -7.953125 L 11.109375 -7.953125 L 11.109375 -6.25 L 4.09375 -6.25 L 4.09375 -1.734375 Z M 12.234375 -1.734375 "/></g></g></g><g fill="#ffffff" fill-opacity="1"><g transform="translate(264.645708, 359.128369)"><g><path d="M 11.4375 0 L 8.421875 -4.296875 C 8.054688 -4.265625 7.765625 -4.25 7.546875 -4.25 L 4.09375 -4.25 L 4.09375 0 L 2.09375 0 L 2.09375 -13.984375 L 7.546875 -13.984375 C 9.359375 -13.984375 10.78125 -13.546875 11.8125 -12.671875 C 12.851562 -11.804688 13.375 -10.617188 13.375 -9.109375 C 13.375 -8.023438 13.109375 -7.101562 12.578125 -6.34375 C 12.046875 -5.59375 11.285156 -5.039062 10.296875 -4.6875 L 13.625 0 Z M 7.484375 -5.953125 C 8.753906 -5.953125 9.71875 -6.222656 10.375 -6.765625 C 11.039062 -7.316406 11.375 -8.097656 11.375 -9.109375 C 11.375 -10.117188 11.039062 -10.890625 10.375 -11.421875 C 9.71875 -11.960938 8.753906 -12.234375 7.484375 -12.234375 L 4.09375 -12.234375 L 4.09375 -5.953125 Z M 7.484375 -5.953125 "/></g></g></g><g fill="#ffffff" fill-opacity="1"><g transform="translate(279.602852, 359.128369)"><g><path d="M 4.875 -12.234375 L 0.078125 -12.234375 L 0.078125 -13.984375 L 11.640625 -13.984375 L 11.640625 -12.234375 L 6.84375 -12.234375 L 6.84375 0 L 4.875 0 Z M 4.875 -12.234375 "/></g></g></g><g fill="#ffffff" fill-opacity="1"><g transform="translate(291.76433, 359.128369)"><g><path d="M 6.171875 0.15625 C 5.117188 0.15625 4.101562 -0.00390625 3.125 -0.328125 C 2.144531 -0.648438 1.375 -1.070312 0.8125 -1.59375 L 1.5625 -3.15625 C 2.09375 -2.675781 2.773438 -2.285156 3.609375 -1.984375 C 4.441406 -1.679688 5.296875 -1.53125 6.171875 -1.53125 C 7.328125 -1.53125 8.191406 -1.726562 8.765625 -2.125 C 9.335938 -2.519531 9.625 -3.039062 9.625 -3.6875 C 9.625 -4.164062 9.46875 -4.554688 9.15625 -4.859375 C 8.84375 -5.160156 8.457031 -5.390625 8 -5.546875 C 7.539062 -5.710938 6.890625 -5.894531 6.046875 -6.09375 C 4.992188 -6.34375 4.144531 -6.59375 3.5 -6.84375 C 2.851562 -7.101562 2.300781 -7.492188 1.84375 -8.015625 C 1.382812 -8.546875 1.15625 -9.253906 1.15625 -10.140625 C 1.15625 -10.890625 1.351562 -11.5625 1.75 -12.15625 C 2.144531 -12.757812 2.738281 -13.238281 3.53125 -13.59375 C 4.332031 -13.957031 5.328125 -14.140625 6.515625 -14.140625 C 7.335938 -14.140625 8.144531 -14.03125 8.9375 -13.8125 C 9.738281 -13.601562 10.425781 -13.300781 11 -12.90625 L 10.34375 -11.296875 C 9.757812 -11.671875 9.132812 -11.953125 8.46875 -12.140625 C 7.800781 -12.335938 7.148438 -12.4375 6.515625 -12.4375 C 5.378906 -12.4375 4.523438 -12.226562 3.953125 -11.8125 C 3.390625 -11.40625 3.109375 -10.875 3.109375 -10.21875 C 3.109375 -9.738281 3.269531 -9.347656 3.59375 -9.046875 C 3.914062 -8.753906 4.3125 -8.523438 4.78125 -8.359375 C 5.25 -8.191406 5.890625 -8.015625 6.703125 -7.828125 C 7.753906 -7.578125 8.597656 -7.320312 9.234375 -7.0625 C 9.878906 -6.8125 10.429688 -6.425781 10.890625 -5.90625 C 11.347656 -5.382812 11.578125 -4.6875 11.578125 -3.8125 C 11.578125 -3.082031 11.378906 -2.414062 10.984375 -1.8125 C 10.585938 -1.207031 9.984375 -0.726562 9.171875 -0.375 C 8.359375 -0.0195312 7.359375 0.15625 6.171875 0.15625 Z M 6.171875 0.15625 "/></g></g></g><path stroke-linecap="round" transform="matrix(1.703749, 0, 0, 1.715043, 9.201349, 350.600867)" fill="none" stroke-linejoin="miter" d="M 1.000676 1.000289 L 32.225466 1.000289 " stroke="#ffffff" stroke-width="2" stroke-opacity="1" stroke-miterlimit="4"/><path stroke-linecap="round" transform="matrix(1.703749, 0, 0, 1.715043, 313.076586, 350.600867)" fill="none" stroke-linejoin="miter" d="M 1.000537 1.000289 L 32.225327 1.000289 " stroke="#ffffff" stroke-width="2" stroke-opacity="1" stroke-miterlimit="4"/></svg>